<svg width="48" height="48" viewBox="0 0 48 48" fill="none" xmlns="http://www.w3.org/2000/svg">
<path d="M45.3636 10.4853L37.3938 2.48673C36.3536 1.50616 34.9906 0.943523 33.564 0.905846C32.1374 0.868169 30.7468 1.35808 29.6567 2.28238L3.47853 28.5551C2.53834 29.5066 1.95294 30.7538 1.82058 32.0873L0.569842 44.2603C0.530659 44.6879 0.58594 45.1189 0.731743 45.5225C0.877547 45.9262 1.11028 46.2926 1.41336 46.5957C1.68515 46.8662 2.00748 47.0803 2.36187 47.2256C2.71625 47.3708 3.09573 47.4445 3.47853 47.4422H3.74031L15.8695 46.3329C17.1982 46.2001 18.4409 45.6126 19.389 44.669L45.5672 18.3963C46.5833 17.319 47.1324 15.8814 47.0942 14.3986C47.056 12.9157 46.4337 11.5085 45.3636 10.4853ZM35.4741 20.2354L27.6788 12.412L33.3507 6.57359L41.2914 14.543L35.4741 20.2354Z" fill="white"/>
</svg>
