<svg width="94" height="74" viewBox="0 0 94 74" fill="none" xmlns="http://www.w3.org/2000/svg">
<path d="M90.6429 0H3.35714C1.50022 0 0 1.50312 0 3.36364V70.6364C0 72.4969 1.50022 74 3.35714 74H90.6429C92.4998 74 94 72.4969 94 70.6364V3.36364C94 1.50312 92.4998 0 90.6429 0ZM86.4464 66.4318H7.55357V62.2378L22.0837 44.9676L37.8308 63.6778L62.3275 34.5824L86.4464 63.2364V66.4318ZM86.4464 52.7881L62.9674 24.8909C62.6317 24.4915 62.0232 24.4915 61.6875 24.8909L37.8308 53.2295L22.7237 35.2866C22.3879 34.8872 21.7795 34.8872 21.4438 35.2866L7.55357 51.7895V7.56818H86.4464V52.7881ZM25.1786 31.1136C26.391 31.1136 27.5915 30.8744 28.7116 30.4095C29.8317 29.9447 30.8494 29.2633 31.7067 28.4044C32.564 27.5454 33.244 26.5257 33.708 25.4035C34.1719 24.2812 34.4107 23.0784 34.4107 21.8636C34.4107 20.6489 34.1719 19.4461 33.708 18.3238C33.244 17.2016 32.564 16.1818 31.7067 15.3229C30.8494 14.464 29.8317 13.7826 28.7116 13.3178C27.5915 12.8529 26.391 12.6136 25.1786 12.6136C22.7301 12.6136 20.3818 13.5882 18.6505 15.3229C16.9191 17.0576 15.9464 19.4104 15.9464 21.8636C15.9464 24.3169 16.9191 26.6697 18.6505 28.4044C20.3818 30.1391 22.7301 31.1136 25.1786 31.1136ZM25.1786 18.9205C26.8047 18.9205 28.1161 20.2344 28.1161 21.8636C28.1161 23.4929 26.8047 24.8068 25.1786 24.8068C23.5525 24.8068 22.2411 23.4929 22.2411 21.8636C22.2411 20.2344 23.5525 18.9205 25.1786 18.9205Z" fill="#AEAEAE"/>
</svg>
