<svg width="147" height="47" viewBox="0 0 147 47" fill="none" xmlns="http://www.w3.org/2000/svg">
<path d="M24.3711 0C31.1166 0.0236418 38.0798 1.584 45.2364 4.70473L45.5748 4.84658L45.6957 5.17757V5.20121C46.276 6.92706 46.7837 8.65292 47.1947 10.3788C47.6058 12.1046 47.9442 13.8305 48.186 15.5563C48.5245 17.826 48.7179 20.0719 48.7663 22.3415V24.9894C48.6212 30.7108 47.6058 36.4321 45.6957 42.1534L45.5748 42.4844L45.2364 42.6263C38.4666 45.5578 31.6727 47 24.903 47C24.7337 47 24.5645 47 24.3711 47V45.3924C24.5645 45.3924 24.7337 45.3924 24.903 45.3924C31.3342 45.3924 37.7896 44.0448 44.2451 41.3023C47.0497 32.7912 47.8234 24.2802 46.5661 15.7691C46.3243 14.1142 45.9859 12.412 45.5748 10.7334C45.2122 9.17304 44.7528 7.58903 44.2451 6.02867C37.4028 3.09708 30.7781 1.63129 24.3711 1.60765V0ZM4.52122 4.72837C10.8558 1.56036 17.4321 0 24.226 0C24.2743 0 24.3227 0 24.3711 0V1.60765C24.3227 1.60765 24.2743 1.60765 24.226 1.60765C17.7706 1.60765 11.5569 3.07344 5.53668 6.02867C3.09474 11.7027 1.71661 17.4713 1.64408 23.3581C1.54737 29.1977 2.78043 35.1791 5.5125 41.2787C11.7987 43.9502 18.0849 45.3214 24.3711 45.3924V47C17.7706 46.9291 11.1701 45.4869 4.56957 42.6263L4.13438 42.2243C1.32977 36.0775 0.0241776 30.0251 0 24.091V23.6655C0 23.5473 0 23.4527 0 23.3345C0.0725329 17.164 1.54737 11.088 4.13438 5.13028L4.52122 4.72837Z" fill="#003399"/>
<path fill-rule="evenodd" clip-rule="evenodd" d="M24.8063 36.6212C24.4678 32.1056 24.6854 27.4009 23.3072 23.0981C22.0258 19.079 17.1661 16.7857 17.0694 12.3647C16.9727 8.91296 19.6564 4.91748 24.6854 4.91748C29.4 4.89384 32.3255 8.25098 32.664 11.9864C33.075 16.3129 27.7076 19.2208 26.3053 23.3345C24.8546 27.5427 25.2656 32.2002 24.8063 36.6212Z" fill="#003399"/>
<path fill-rule="evenodd" clip-rule="evenodd" d="M26.6679 35.5336C26.4745 31.6091 26.4745 27.85 27.5866 24.5165C28.8197 20.7338 31.3825 17.5422 35.2993 16.502C37.983 15.7927 41.924 18.8661 41.2954 22.0105C40.7635 24.5402 38.1765 27.5191 34.0179 27.85C32.0837 28.0155 31.2616 29.5286 30.0528 30.4034C35.4686 29.8832 38.9743 27.8028 41.4163 25.6277C41.7789 27.4718 42.0207 30.5689 40.5459 31.6327C37.6445 33.6423 34.9608 32.011 31.5518 32.9567C29.6417 33.5004 28.457 34.6825 26.6679 35.5336Z" fill="#003399"/>
<path fill-rule="evenodd" clip-rule="evenodd" d="M22.9688 35.5336C23.1864 31.6091 23.1622 27.85 22.0742 24.5165C20.8412 20.7338 18.2784 17.5422 14.3616 16.502C11.6779 15.7927 7.71273 18.8661 8.36553 22.0105C8.89744 24.5402 11.4844 27.5191 15.643 27.85C17.553 28.0155 18.3992 29.5286 19.6081 30.4034C14.1682 29.8832 10.6866 27.8028 8.24464 25.6277C7.88197 27.4718 7.6402 30.5689 9.11503 31.6327C12.0163 33.6423 14.7001 32.011 18.1091 32.9567C20.0191 33.5004 21.1797 34.6825 22.9688 35.5336Z" fill="#003399"/>
<path fill-rule="evenodd" clip-rule="evenodd" d="M35.8554 41.3733V40.7349L36.339 40.6167L35.8554 39.9075V38.7254L38.0314 41.6806L37.2577 41.8697L36.7258 41.1368L35.8554 41.3733ZM35.8554 38.7254V39.9075L35.5169 39.4346L35.3719 40.8531L35.8554 40.7349V41.3733L35.2993 41.4915L35.2026 42.3662L34.4289 42.5554L34.9367 38.7017L35.7104 38.5126L35.8554 38.7254ZM28.6505 43.4301V42.8154H28.8197C29.0857 42.7918 29.2549 42.7681 29.3275 42.7445C29.4242 42.7209 29.5209 42.6499 29.5692 42.579C29.6418 42.4844 29.666 42.3899 29.666 42.2717C29.6418 42.1534 29.6176 42.0589 29.5451 41.988C29.4967 41.917 29.4 41.8697 29.3033 41.8461C29.2066 41.8225 28.989 41.8225 28.6505 41.8461V41.2314C28.8439 41.2314 28.9648 41.2078 29.0132 41.2078C29.1341 41.1841 29.2308 41.1132 29.3033 41.0423C29.3758 40.9714 29.4 40.8768 29.3758 40.7586C29.3758 40.6404 29.3275 40.5458 29.2549 40.4985C29.2066 40.4276 29.1099 40.3803 28.9648 40.3803C28.9165 40.3803 28.8197 40.3803 28.6505 40.4039V39.7893C28.9165 39.7656 29.1099 39.7656 29.2308 39.7893C29.3758 39.7893 29.5209 39.8365 29.6418 39.9075C29.7627 39.9548 29.8594 40.0493 29.9561 40.1675C30.0286 40.2857 30.077 40.4276 30.1012 40.5931C30.1253 40.7586 30.077 40.9241 30.0044 41.0659C29.9319 41.2078 29.811 41.326 29.6418 41.4205C29.8836 41.4678 30.077 41.5624 30.1979 41.7043C30.3429 41.8461 30.4155 42.0116 30.4396 42.2244C30.4396 42.3899 30.4155 42.5554 30.3671 42.7209C30.2946 42.8863 30.1979 43.0046 30.077 43.1228C29.9319 43.2173 29.7868 43.2883 29.5934 43.3355C29.4725 43.3592 29.1582 43.3828 28.6989 43.4301H28.6505ZM33.2201 41.4442L33.9696 41.5388C33.9212 41.9407 33.8003 42.2717 33.5827 42.5081C33.3651 42.7209 33.0508 42.8863 32.664 42.9573C32.1804 43.0282 31.7452 42.9336 31.3826 42.6736C30.9957 42.3899 30.7781 41.988 30.6572 41.4205C30.5605 40.8295 30.6331 40.333 30.899 39.9548C31.1408 39.5765 31.5276 39.3401 32.0354 39.2455C32.4947 39.1746 32.8574 39.2455 33.1959 39.4583C33.3893 39.5765 33.5586 39.7656 33.6794 40.0493L32.9783 40.333C32.9058 40.1675 32.7849 40.0257 32.6398 39.9548C32.4706 39.8602 32.3013 39.8365 32.1079 39.8602C31.8419 39.9075 31.6485 40.0493 31.5035 40.2621C31.3584 40.4985 31.3342 40.8059 31.4067 41.2314C31.5035 41.6806 31.6485 41.988 31.8419 42.1535C32.0354 42.3189 32.2771 42.3899 32.5431 42.3426C32.7365 42.2953 32.8816 42.2007 33.0025 42.0589C33.1234 41.917 33.1959 41.7043 33.2201 41.4442ZM28.6505 39.7893V40.4039C28.5538 40.4039 28.4571 40.4276 28.3362 40.4276L27.901 40.4749L27.9735 41.3023L28.4813 41.2551C28.5296 41.2551 28.6021 41.2551 28.6505 41.2314V41.8461C28.6505 41.8461 28.6505 41.8461 28.6263 41.8461L28.0461 41.8934L28.1186 42.8627L28.6505 42.8154V43.4301L27.4416 43.5483L27.1031 39.9311L28.578 39.8129C28.6021 39.7893 28.6263 39.7893 28.6505 39.7893ZM23.9842 42.1771V41.5624C24.1535 41.5624 24.2502 41.5388 24.3227 41.5151C24.4194 41.4915 24.4919 41.4206 24.5645 41.3496C24.6128 41.2551 24.637 41.1605 24.637 41.0659C24.6612 40.9241 24.6128 40.8295 24.5403 40.7349C24.4678 40.6404 24.3711 40.5931 24.2502 40.5694C24.1776 40.5694 24.1051 40.5458 23.9842 40.5458V39.9311C24.3469 39.9311 24.5645 39.9548 24.6854 40.002C24.903 40.0493 25.0722 40.1675 25.2173 40.3567C25.3623 40.5458 25.4349 40.7822 25.4107 41.0659C25.4107 41.2787 25.3623 41.4678 25.2898 41.6333C25.1931 41.7752 25.0964 41.8934 24.9755 41.988C24.8304 42.0589 24.7095 42.1062 24.5645 42.1535C24.4194 42.1771 24.226 42.1771 23.9842 42.1771ZM23.9842 39.9311V40.5458C23.9117 40.5458 23.815 40.5458 23.6941 40.5458L23.3314 40.5222V41.5624H23.7183C23.815 41.5624 23.9117 41.5624 23.9842 41.5624V42.1771C23.9359 42.1771 23.8633 42.1771 23.7908 42.1771H23.3072L23.2831 43.5483L22.5336 43.5247L22.6061 39.9075L23.7908 39.9311C23.8633 39.9311 23.9359 39.9311 23.9842 39.9311ZM16.9969 41.8225V40.7113C17.2145 40.7586 17.3595 40.7586 17.4321 40.7586C17.5288 40.7349 17.6013 40.7113 17.6739 40.6404C17.7222 40.5694 17.7706 40.4985 17.7947 40.3803C17.8189 40.2621 17.7947 40.1675 17.7464 40.073C17.698 39.9784 17.6013 39.9311 17.4804 39.8838C17.4321 39.8602 17.2628 39.8365 16.9969 39.7893V39.1746L17.3112 39.2219C17.698 39.2928 17.964 39.3637 18.1332 39.4583C18.3025 39.5528 18.4234 39.6947 18.4959 39.8838C18.5684 40.0493 18.5926 40.2621 18.5442 40.4749C18.4959 40.7349 18.375 40.9477 18.1816 41.0896C18.0123 41.2314 17.7464 41.3023 17.4079 41.3023C17.553 41.4205 17.6739 41.5388 17.7464 41.657C17.8431 41.7988 17.9398 42.0116 18.0607 42.3189L18.375 43.0991L17.5046 42.9336L17.1178 42.0589C17.0694 41.988 17.0452 41.8934 16.9969 41.8225ZM19.1245 39.5765L19.8498 39.6474L19.6806 41.6097C19.6564 41.917 19.6564 42.1298 19.6564 42.2007C19.6806 42.3662 19.7531 42.4844 19.8498 42.579C19.9707 42.6972 20.1158 42.7445 20.3334 42.7681C20.551 42.7918 20.7202 42.7445 20.8169 42.6736C20.9378 42.6026 21.0104 42.5081 21.0587 42.3899C21.0829 42.2717 21.1071 42.0589 21.1313 41.7752L21.3005 39.7656L22.05 39.8365L21.8808 41.7279C21.8566 42.1771 21.8082 42.4844 21.7357 42.6499C21.6873 42.8154 21.5906 42.9809 21.4939 43.0755C21.373 43.1937 21.2038 43.2883 21.0104 43.3355C20.8411 43.4065 20.5993 43.4065 20.3092 43.3828C19.9466 43.3592 19.6806 43.2883 19.5114 43.1937C19.3421 43.0991 19.197 42.9809 19.1003 42.8627C19.0036 42.7209 18.9553 42.579 18.9311 42.4372C18.9069 42.2244 18.9069 41.917 18.9311 41.5151L19.1245 39.5765ZM13.2494 40.6404L13.3944 40.0493L14.966 40.4512L14.5791 41.8461C14.3857 41.9643 14.1439 42.0352 13.8054 42.0589C13.4911 42.0825 13.201 42.0589 12.9109 41.988C12.524 41.8934 12.2097 41.7279 11.9921 41.5151C11.7503 41.2787 11.6053 40.995 11.5327 40.6877C11.4844 40.3567 11.4844 40.0257 11.5811 39.6947C11.6778 39.3401 11.847 39.0327 12.0888 38.7727C12.3064 38.5362 12.5966 38.3944 12.935 38.3235C13.201 38.2525 13.5153 38.2762 13.8538 38.3708C14.289 38.489 14.6275 38.6545 14.8209 38.9145C15.0143 39.1509 15.111 39.4583 15.0869 39.7893L14.3373 39.742C14.3373 39.5528 14.289 39.3873 14.1681 39.2455C14.0472 39.1273 13.9021 39.0091 13.6845 38.9618C13.3702 38.8909 13.1043 38.9145 12.8625 39.0564C12.6207 39.1982 12.4515 39.4819 12.3306 39.8602C12.2097 40.2857 12.2339 40.6167 12.3548 40.8768C12.4998 41.1368 12.7174 41.3023 13.0076 41.3733C13.1768 41.4206 13.3219 41.4205 13.4911 41.4205C13.6604 41.3969 13.8054 41.3496 13.9505 41.3023L14.0714 40.8531L13.2494 40.6404ZM16.9969 39.1746L15.7396 38.9618L15.111 42.5317L15.8364 42.6499L16.1023 41.1605L16.2716 41.1841C16.4408 41.2078 16.5617 41.2551 16.6342 41.2787C16.7068 41.326 16.7551 41.3969 16.8276 41.4678C16.8518 41.5388 16.9243 41.657 16.9969 41.8225V40.7113C16.9243 40.7113 16.8518 40.6877 16.7551 40.6877L16.2232 40.5931L16.3683 39.6947L16.9485 39.7893C16.9727 39.7893 16.9969 39.7893 16.9969 39.7893V39.1746Z" fill="#003399"/>
<path fill-rule="evenodd" clip-rule="evenodd" d="M132.227 34.7535V28.0865H135.225V16.3601L132.227 22.2233V7.589H144.002L147 41.3023H135.225V34.7535H132.227ZM132.227 7.589V22.2233L129.229 28.0865H132.227V34.7535H126.57L124.249 40.9477H116.947V33.2404L125.095 16.0528H123.427L128.069 7.589H132.227ZM116.947 18.8189L120.598 10.3551L116.947 8.36918V18.8189ZM87.9098 15.5799C88.0791 14.6106 88.0791 13.665 87.9098 12.7666V15.5799ZM116.947 8.36918V18.8189L116.464 19.9537C109.259 14.918 98.6205 19.5045 98.0161 24.8239C97.4116 30.3797 101.739 34.8717 112.789 31.5145L108.993 41.4441C94.4136 43.0281 88.756 37.3777 87.9098 30.7817V27.0462C88.1274 25.3204 88.5868 23.6418 89.2154 22.0815C96.3962 4.63377 108.05 8.55831 112.474 8.22733L113.127 6.2887L116.947 8.36918ZM116.947 33.2404L113.296 40.9477H116.947V33.2404ZM74.8055 40.7349C82.6149 39.2218 90.2792 30.0488 82.5907 22.7434C85.5888 21.1831 87.4504 18.3697 87.9098 15.5799V12.7666C87.3779 9.85862 85.081 7.49443 80.7532 7.4235L74.8055 7.3053V13.7832H77.2717C79.907 13.7832 79.5685 20.4502 76.2804 20.4502H74.8055V25.5568C78.3597 26.2188 77.1024 31.0417 74.8055 32.5312V40.7349ZM87.9098 27.0462V30.7817C87.7647 29.5523 87.7647 28.2993 87.9098 27.0462ZM64.5059 7.09252L59.6945 16.2183L61.8463 16.0528L56.0437 40.9477H72.6537C73.3791 40.9477 74.0802 40.8767 74.8055 40.7349V32.5312C74.3945 32.8149 73.9351 32.9803 73.4758 32.9803H67.5039L69.4865 25.4859H73.9593C74.2736 25.4859 74.5638 25.5095 74.8055 25.5568V20.4502H70.647L72.3152 13.7832H74.8055V7.3053L64.5059 7.09252Z" fill="#003399"/>
</svg>
