<svg width="30" height="33" viewBox="0 0 30 33" fill="none" xmlns="http://www.w3.org/2000/svg">
<path d="M8.33333 19.8C7.86111 19.8 7.465 19.6416 7.145 19.3248C6.82611 19.0091 6.66667 18.6175 6.66667 18.15C6.66667 17.6825 6.82611 17.2903 7.145 16.9735C7.465 16.6578 7.86111 16.5 8.33333 16.5C8.80556 16.5 9.20167 16.6578 9.52167 16.9735C9.84056 17.2903 10 17.6825 10 18.15C10 18.6175 9.84056 19.0091 9.52167 19.3248C9.20167 19.6416 8.80556 19.8 8.33333 19.8ZM15 19.8C14.5278 19.8 14.1322 19.6416 13.8133 19.3248C13.4933 19.0091 13.3333 18.6175 13.3333 18.15C13.3333 17.6825 13.4933 17.2903 13.8133 16.9735C14.1322 16.6578 14.5278 16.5 15 16.5C15.4722 16.5 15.8683 16.6578 16.1883 16.9735C16.5072 17.2903 16.6667 17.6825 16.6667 18.15C16.6667 18.6175 16.5072 19.0091 16.1883 19.3248C15.8683 19.6416 15.4722 19.8 15 19.8ZM21.6667 19.8C21.1944 19.8 20.7989 19.6416 20.48 19.3248C20.16 19.0091 20 18.6175 20 18.15C20 17.6825 20.16 17.2903 20.48 16.9735C20.7989 16.6578 21.1944 16.5 21.6667 16.5C22.1389 16.5 22.5344 16.6578 22.8533 16.9735C23.1733 17.2903 23.3333 17.6825 23.3333 18.15C23.3333 18.6175 23.1733 19.0091 22.8533 19.3248C22.5344 19.6416 22.1389 19.8 21.6667 19.8ZM3.33333 33C2.41667 33 1.63167 32.6771 0.978333 32.0314C0.326111 31.3846 0 30.6075 0 29.7V6.6C0 5.6925 0.326111 4.9159 0.978333 4.2702C1.63167 3.6234 2.41667 3.3 3.33333 3.3H5V1.60875C5 1.14125 5.15944 0.75625 5.47833 0.45375C5.79833 0.15125 6.19444 0 6.66667 0C7.13889 0 7.535 0.15785 7.855 0.47355C8.17389 0.79035 8.33333 1.1825 8.33333 1.65V3.3H21.6667V1.60875C21.6667 1.14125 21.8267 0.75625 22.1467 0.45375C22.4656 0.15125 22.8611 0 23.3333 0C23.8056 0 24.2011 0.15785 24.52 0.47355C24.84 0.79035 25 1.1825 25 1.65V3.3H26.6667C27.5833 3.3 28.3683 3.6234 29.0217 4.2702C29.6739 4.9159 30 5.6925 30 6.6V29.7C30 30.6075 29.6739 31.3846 29.0217 32.0314C28.3683 32.6771 27.5833 33 26.6667 33H3.33333ZM3.33333 29.7H26.6667V13.2H3.33333V29.7Z" fill="#009229"/>
</svg>
