<svg width="27" height="27" viewBox="0 0 27 27" fill="none" xmlns="http://www.w3.org/2000/svg">
<path d="M10.5 0H1.5C1.10218 0 0.720644 0.158035 0.43934 0.43934C0.158035 0.720644 0 1.10218 0 1.5V10.5C0 10.8978 0.158035 11.2794 0.43934 11.5607C0.720644 11.842 1.10218 12 1.5 12H10.5C10.8978 12 11.2794 11.842 11.5607 11.5607C11.842 11.2794 12 10.8978 12 10.5V1.5C12 1.10218 11.842 0.720644 11.5607 0.43934C11.2794 0.158035 10.8978 0 10.5 0ZM9 9H3V3H9V9ZM25.5 0H16.5C16.1022 0 15.7206 0.158035 15.4393 0.43934C15.158 0.720644 15 1.10218 15 1.5V10.5C15 10.8978 15.158 11.2794 15.4393 11.5607C15.7206 11.842 16.1022 12 16.5 12H25.5C25.8978 12 26.2794 11.842 26.5607 11.5607C26.842 11.2794 27 10.8978 27 10.5V1.5C27 1.10218 26.842 0.720644 26.5607 0.43934C26.2794 0.158035 25.8978 0 25.5 0ZM24 9H18V3H24V9ZM10.5 15H1.5C1.10218 15 0.720644 15.158 0.43934 15.4393C0.158035 15.7206 0 16.1022 0 16.5V25.5C0 25.8978 0.158035 26.2794 0.43934 26.5607C0.720644 26.842 1.10218 27 1.5 27H10.5C10.8978 27 11.2794 26.842 11.5607 26.5607C11.842 26.2794 12 25.8978 12 25.5V16.5C12 16.1022 11.842 15.7206 11.5607 15.4393C11.2794 15.158 10.8978 15 10.5 15ZM9 24H3V18H9V24ZM21 15C17.691 15 15 17.691 15 21C15 24.309 17.691 27 21 27C24.309 27 27 24.309 27 21C27 17.691 24.309 15 21 15ZM21 24C19.3455 24 18 22.6545 18 21C18 19.3455 19.3455 18 21 18C22.6545 18 24 19.3455 24 21C24 22.6545 22.6545 24 21 24Z" fill="#A9A9A9"/>
</svg>
