<svg width="37" height="39" viewBox="0 0 37 39" fill="none" xmlns="http://www.w3.org/2000/svg">
<path d="M18.5 0C15.0532 0 12.0153 2.22585 11.0416 5.46C10.0095 5.00341 8.91895 4.7561 7.78947 4.7561C5.72358 4.7561 3.74229 5.55784 2.28148 6.98494C0.820674 8.41205 0 10.3476 0 12.3659C0.0046139 14.0511 0.580304 15.6874 1.63719 17.0194C2.69407 18.3513 4.17266 19.3038 5.8421 19.7283V33.2927H31.1579V19.7283C34.5853 18.8532 37 15.8283 37 12.3659C37 10.3476 36.1793 8.41205 34.7185 6.98494C33.2577 5.55784 31.2764 4.7561 29.2105 4.7561C28.0811 4.7561 26.9905 5.00341 25.9584 5.46C24.9847 2.22585 21.9468 0 18.5 0ZM17.5263 17.122H19.4737V30.439H17.5263V17.122ZM11.6842 20.9268H13.6316V30.439H11.6842V20.9268ZM23.3684 20.9268H25.3158V30.439H23.3684V20.9268ZM5.8421 35.1951V37.0976C5.8421 37.6021 6.04727 38.086 6.41248 38.4428C6.77768 38.7996 7.273 39 7.78947 39H29.2105C29.727 39 30.2223 38.7996 30.5875 38.4428C30.9527 38.086 31.1579 37.6021 31.1579 37.0976V35.1951H5.8421Z" fill="#6A6A6A"/>
</svg>
