<svg width="28" height="26" viewBox="0 0 28 26" fill="none" xmlns="http://www.w3.org/2000/svg">
<path d="M13.968 0C11.3655 0 9.07185 1.45803 8.33669 3.57654C7.55742 3.27746 6.73405 3.11546 5.88126 3.11546C4.32146 3.11546 2.82553 3.64063 1.72258 4.57545C0.619631 5.51027 0 6.77815 0 8.10019C0.00348362 9.2041 0.438145 10.276 1.23612 11.1484C2.0341 12.0209 3.15047 12.6449 4.41095 12.9229V21.8082H23.5251V12.9229C26.1128 12.3497 27.936 10.3682 27.936 8.10019C27.936 6.77815 27.3164 5.51027 26.2134 4.57545C25.1105 3.64063 23.6145 3.11546 22.0547 3.11546C21.202 3.11546 20.3786 3.27746 19.5993 3.57654C18.8642 1.45803 16.5705 0 13.968 0ZM13.2328 11.2156H14.7032V19.9389H13.2328V11.2156ZM8.82189 13.708H10.2922V19.9389H8.82189V13.708ZM17.6438 13.708H19.1141V19.9389H17.6438V13.708ZM4.41095 23.0544V24.3006C4.41095 24.6311 4.56586 24.948 4.84159 25.1817C5.11733 25.4154 5.49131 25.5467 5.88126 25.5467H22.0547C22.4447 25.5467 22.8187 25.4154 23.0944 25.1817C23.3701 24.948 23.5251 24.6311 23.5251 24.3006V23.0544H4.41095Z" fill="#A9A9A9"/>
</svg>
