<svg width="46" height="38" viewBox="0 0 46 38" fill="none" xmlns="http://www.w3.org/2000/svg">
<path d="M23.0008 15.2C25.0339 15.2 26.9836 14.3993 28.4212 12.974C29.8588 11.5487 30.6664 9.61564 30.6664 7.6C30.6664 5.58435 29.8588 3.65126 28.4212 2.22599C26.9836 0.800712 25.0339 0 23.0008 0C20.9677 0 19.018 0.800712 17.5804 2.22599C16.1428 3.65126 15.3352 5.58435 15.3352 7.6C15.3352 9.61564 16.1428 11.5487 17.5804 12.974C19.018 14.3993 20.9677 15.2 23.0008 15.2ZM12.7799 12.6667C12.7799 14.0104 12.2415 15.2991 11.2831 16.2493C10.3247 17.1995 9.02489 17.7333 7.66952 17.7333C6.31415 17.7333 5.01429 17.1995 4.0559 16.2493C3.09751 15.2991 2.55909 14.0104 2.55909 12.6667C2.55909 11.3229 3.09751 10.0342 4.0559 9.08399C5.01429 8.1338 6.31415 7.6 7.66952 7.6C9.02489 7.6 10.3247 8.1338 11.2831 9.08399C12.2415 10.0342 12.7799 11.3229 12.7799 12.6667ZM1.25593 31.2259C0.819718 30.9801 0.493056 30.5802 0.341161 30.1061C-0.109053 28.6604 -0.113774 27.1144 0.327602 25.666C0.768979 24.2176 1.63636 22.9328 2.81868 21.9761C4.00099 21.0195 5.44443 20.4344 6.96413 20.296C8.48384 20.1575 10.0106 20.4719 11.349 21.1989C8.59867 23.8786 6.87723 27.4255 6.48134 31.2284C6.42257 31.7908 6.44557 32.3481 6.54522 32.8852C4.68032 32.7253 2.87413 32.1587 1.25593 31.2259ZM39.4564 32.8826C41.3211 32.7235 43.1273 32.1578 44.7457 31.2259C45.1809 30.9796 45.5066 30.5798 45.6579 30.1061C46.1088 28.6603 46.1141 27.1138 45.673 25.665C45.2319 24.2161 44.3646 22.9308 43.1822 21.9738C41.9997 21.0167 40.5559 20.4314 39.0359 20.2929C37.5158 20.1544 35.9886 20.469 34.65 21.1964C37.4028 23.876 39.1261 27.4239 39.5228 31.2284C39.5798 31.781 39.5574 32.3388 39.4564 32.8852V32.8826ZM43.4425 12.6667C43.4425 14.0104 42.9041 15.2991 41.9457 16.2493C40.9873 17.1995 39.6875 17.7333 38.3321 17.7333C36.9767 17.7333 35.6769 17.1995 34.7185 16.2493C33.7601 15.2991 33.2217 14.0104 33.2217 12.6667C33.2217 11.3229 33.7601 10.0342 34.7185 9.08399C35.6769 8.1338 36.9767 7.6 38.3321 7.6C39.6875 7.6 40.9873 8.1338 41.9457 9.08399C42.9041 10.0342 43.4425 11.3229 43.4425 12.6667ZM11.0015 33.4147C10.7495 33.1909 10.5541 32.9115 10.4312 32.599C10.3082 32.2866 10.2611 31.9498 10.2937 31.616C10.6187 28.4987 12.0978 25.6115 14.4451 23.5125C16.7923 21.4135 19.8411 20.2517 23.0021 20.2517C26.1631 20.2517 29.2118 21.4135 31.5591 23.5125C33.9063 25.6115 35.3854 28.4987 35.7104 31.616C35.7432 31.9498 35.6962 32.2867 35.5733 32.5991C35.4503 32.9116 35.2548 33.191 35.0026 33.4147C31.7172 36.3709 27.4376 38.0059 23.0008 38C18.5648 38.0055 14.2862 36.3705 11.0015 33.4147Z" fill="#6A6A6A"/>
</svg>
