<svg width="39" height="48" viewBox="0 0 39 48" fill="none" xmlns="http://www.w3.org/2000/svg">
<path d="M19.5898 26.186C23.2328 26.186 26.186 23.2328 26.186 19.5898C26.186 15.9469 23.2328 12.9937 19.5898 12.9937C15.9469 12.9937 12.9937 15.9469 12.9937 19.5898C12.9937 23.2328 15.9469 26.186 19.5898 26.186Z" stroke="#A9A9A9" stroke-width="3" stroke-linecap="round" stroke-linejoin="round"/>
<path d="M19.5897 2C14.9247 2 10.4506 3.8532 7.15192 7.15192C3.8532 10.4506 2 14.9247 2 19.5897C2 23.7497 2.88388 26.4717 5.29808 29.484L19.5897 45.9744L33.8814 29.484C36.2956 26.4717 37.1795 23.7497 37.1795 19.5897C37.1795 14.9247 35.3263 10.4506 32.0276 7.15192C28.7289 3.8532 24.2548 2 19.5897 2V2Z" stroke="#A9A9A9" stroke-width="3" stroke-linecap="round" stroke-linejoin="round"/>
</svg>
