<svg width="45" height="52" viewBox="0 0 45 52" fill="none" xmlns="http://www.w3.org/2000/svg">
<path d="M29.8079 31.8197C29.4818 31.7146 27.4205 30.799 28.7085 26.9408H28.6901C32.0476 23.5333 34.6135 18.0501 34.6135 12.6519C34.6135 4.35135 29.0121 0 22.5021 0C15.9879 0 10.4173 4.34933 10.4173 12.6519C10.4173 18.0724 12.9688 23.5778 16.3469 26.9772C17.6636 30.3807 15.309 31.6438 14.8168 31.8217C7.99909 34.251 0 38.6792 0 43.0507V44.6898C0 50.6459 11.7197 52 22.5656 52C33.428 52 45 50.6459 45 44.6898V43.0507C45 38.5478 36.9619 34.154 29.8079 31.8197Z" fill="#A9A9A9"/>
</svg>
