<svg width="48" height="48" viewBox="0 0 48 48" fill="none" xmlns="http://www.w3.org/2000/svg">
<path d="M20.8192 11.3297L13.3766 2.73917C12.5187 1.74923 10.9457 1.75363 9.94907 2.75237L3.8287 8.8834C2.00711 10.7071 1.48571 13.4151 2.53951 15.5864C8.83503 28.6205 19.3475 39.1472 32.3735 45.4606C34.5427 46.5143 37.2487 45.993 39.0703 44.1693L45.2479 37.9811C46.2489 36.9801 46.2511 35.3984 45.2523 34.5405L36.6283 27.1379C35.7263 26.3636 34.3249 26.4647 33.4207 27.3711L30.42 30.3761C30.2663 30.5371 30.0641 30.6432 29.8443 30.6782C29.6246 30.7132 29.3994 30.6751 29.2034 30.5697C24.2984 27.7453 20.2296 23.6714 17.4114 18.763C17.3059 18.5667 17.2677 18.3411 17.3026 18.121C17.3376 17.9008 17.4438 17.6983 17.605 17.5443L20.597 14.5503C21.5034 13.6395 21.6024 12.2316 20.8192 11.3275V11.3297Z" stroke="#A9A9A9" stroke-width="3" stroke-linecap="round" stroke-linejoin="round"/>
</svg>
