<svg width="197" height="197" viewBox="0 0 197 197" fill="none" xmlns="http://www.w3.org/2000/svg">
<circle cx="98.5" cy="98.5" r="96" stroke="#1C9FE2" stroke-width="5"/>
<path d="M94.8972 117.466L118.735 90.5157C119.52 89.7102 119.913 88.7809 119.913 87.7277C119.913 86.6745 119.52 85.7452 118.735 84.9397L115.653 81.7801C114.988 81.0986 114.082 80.7578 112.934 80.7578C111.725 80.7578 110.819 81.0986 110.215 81.7801L94.8972 97.7643L88.0087 90.5157C87.0419 89.2766 86.1356 88.657 85.2896 88.657C84.5041 88.657 83.5977 89.1836 82.5705 90.2369L79.4888 93.6753C78.7033 94.4807 78.3105 95.4256 78.3105 96.5098C78.3105 97.594 78.7033 98.4768 79.4888 99.1583L94.8972 117.466ZM85.2896 93.6753L94.8972 103.526L112.753 84.568L115.834 87.9136L94.8972 111.518L82.2079 96.6492L85.2896 93.6753Z" fill="#1C9FE2"/>
</svg>
