<svg xmlns="http://www.w3.org/2000/svg" viewBox="0 0 229.75 211.54"><defs><style>.cls-1{isolation:isolate;}.cls-2{opacity:0.7;}.cls-13,.cls-3,.cls-30{fill:#fff;}.cls-4{fill:#009229;opacity:0.45;mix-blend-mode:color-burn;}.cls-5{fill:#ffc68c;}.cls-6{fill:#ffd5a8;}.cls-7{fill:#ffb578;}.cls-8{fill:#fe9900;}.cls-9{fill:#b3f1f1;}.cls-10{fill:#001c22;}.cls-11{fill:#006f8a;}.cls-12{fill:#003845;}.cls-13,.cls-15{mix-blend-mode:soft-light;}.cls-14{fill:#ffdcc2;}.cls-15{fill:#ffa59d;}.cls-16{fill:#fea359;}.cls-17,.cls-31{opacity:0.5;mix-blend-mode:multiply;}.cls-18,.cls-31{fill:gray;}.cls-19{fill:#e6e6e6;}.cls-20{fill:#af5724;}.cls-21{fill:#c1c1c1;}.cls-22{fill:#fcfcfc;}.cls-23{fill:#c80000;}.cls-24{fill:#e9030c;}.cls-25{fill:#f52929;}.cls-26{fill:#ffaa45;}.cls-27{fill:#ffcd85;}.cls-28{fill:#88a942;}.cls-29{fill:#da0000;}.cls-30{opacity:0.3;}.cls-32{fill:#c2fedd;}.cls-33{fill:#561e0d;}.cls-34{fill:#8c3d1b;}.cls-35{fill:#652510;}.cls-36{fill:#ffbe67;}.cls-37{fill:#f2cda2;}.cls-38{fill:#e9e9e9;}.cls-39{fill:#ffc51a;}.cls-40{fill:#ffe1b9;}.cls-41{fill:#fed9ae;}.cls-42{fill:#622d0b;}.cls-43{fill:#6f3a18;}.cls-44{fill:#b7b7b7;}.cls-45{fill:#d4d4d4;}.cls-46{fill:#e7e5d9;}.cls-47{fill:#006500;}.cls-48{fill:#209023;}.cls-49{fill:#ff301a;}.cls-50{fill:#e41201;}.cls-51{fill:#ff684e;}.cls-52{fill:#d7d7d7;}.cls-53{fill:#bbb;}.cls-54{fill:#f92626;}.cls-55{fill:#c4ffe0;}.cls-56{fill:#95cb5e;}.cls-57{fill:#89ab3f;}.cls-58{fill:#b2e383;}.cls-59{fill:#ed0007;}.cls-60{fill:#cb0000;}.cls-61{fill:#a87a3c;}.cls-62{fill:#ffead1;}.cls-63{fill:#e38e57;}.cls-64{fill:#541b09;}.cls-65{fill:#ff9220;}.cls-66{fill:#ffac43;}.cls-67{fill:#ffcf85;}.cls-68{fill:#4e1b07;}.cls-69{fill:#804e3c;}.cls-70{fill:#320b00;}.cls-71{fill:#ffde86;}.cls-72{fill:#a77a3e;}.cls-73{fill:#ffe6ce;}.cls-74{fill:#df8d58;}.cls-75{fill:#fa9223;}</style></defs><g class="cls-1"><g id="Layer_2" data-name="Layer 2"><g id="Layer_1-2" data-name="Layer 1"><g class="cls-2"><path class="cls-3" d="M204.56,124.1a.76.76,0,1,0,.76.76A.76.76,0,0,0,204.56,124.1Z"/><path class="cls-3" d="M204.84,120.53a.77.77,0,0,0-.76.77.76.76,0,0,0,1.52,0A.77.77,0,0,0,204.84,120.53Z"/><circle class="cls-3" cx="204.99" cy="117.7" r="0.76"/><path class="cls-3" d="M205,113.37a.77.77,0,1,0,.76.76A.76.76,0,0,0,205,113.37Z"/><path class="cls-3" d="M204.11,110.57a.76.76,0,1,0,.76-.76A.76.76,0,0,0,204.11,110.57Z"/><circle class="cls-3" cx="204.59" cy="106.97" r="0.76"/><circle class="cls-3" cx="204.16" cy="103.43" r="0.76"/><path class="cls-3" d="M202.85,99.9a.76.76,0,0,0,.76.76.77.77,0,0,0,.77-.76.78.78,0,0,0-.77-.77A.77.77,0,0,0,202.85,99.9Z"/><circle class="cls-3" cx="202.89" cy="96.37" r="0.76"/><circle class="cls-3" cx="202.04" cy="92.91" r="0.76"/><path class="cls-3" d="M200.29,89.47a.76.76,0,1,0,.76-.76A.76.76,0,0,0,200.29,89.47Z"/><circle class="cls-3" cx="199.92" cy="86.06" r="0.76"/><circle class="cls-3" cx="198.66" cy="82.73" r="0.76"/><path class="cls-3" d="M197.25,80.21a.77.77,0,1,0-.77-.77A.76.76,0,0,0,197.25,80.21Z"/><path class="cls-3" d="M195.71,77a.78.78,0,0,0,.77-.77.77.77,0,0,0-.77-.76.76.76,0,0,0-.76.76A.77.77,0,0,0,195.71,77Z"/><circle class="cls-3" cx="194.05" cy="73.05" r="0.76"/><path class="cls-3" d="M192.27,69.2A.76.76,0,1,0,193,70,.76.76,0,0,0,192.27,69.2Z"/><path class="cls-3" d="M190.36,66.18a.77.77,0,1,0,.76.76A.76.76,0,0,0,190.36,66.18Z"/><circle class="cls-3" cx="188.32" cy="64.01" r="0.76"/><path class="cls-3" d="M186.14,60.38a.76.76,0,1,0,.77.76A.76.76,0,0,0,186.14,60.38Z"/><path class="cls-3" d="M183.91,57.62a.76.76,0,1,0,.76.76A.76.76,0,0,0,183.91,57.62Z"/><circle class="cls-3" cx="181.53" cy="55.71" r="0.76"/><circle class="cls-3" cx="179.04" cy="53.12" r="0.76"/><circle class="cls-3" cx="176.47" cy="50.65" r="0.76"/><circle class="cls-3" cx="173.78" cy="48.27" r="0.76"/><circle class="cls-3" cx="170.98" cy="46" r="0.76"/><circle class="cls-3" cx="168.14" cy="43.86" r="0.76"/><circle class="cls-3" cx="165.19" cy="41.84" r="0.76"/><circle class="cls-3" cx="162.14" cy="39.91" r="0.76"/><circle class="cls-3" cx="159.03" cy="38.13" r="0.76"/><path class="cls-3" d="M155.86,35.7a.77.77,0,1,0,.77.76A.76.76,0,0,0,155.86,35.7Z"/><circle class="cls-3" cx="152.61" cy="34.94" r="0.76"/><path class="cls-3" d="M149.32,32.78a.76.76,0,0,0-.77.76.77.77,0,1,0,1.53,0A.76.76,0,0,0,149.32,32.78Z"/><path class="cls-3" d="M145.94,31.52a.76.76,0,1,0,.76.76A.76.76,0,0,0,145.94,31.52Z"/><path class="cls-3" d="M142.54,30.4a.76.76,0,1,0,.77.76A.76.76,0,0,0,142.54,30.4Z"/><path class="cls-3" d="M139.1,29.41a.76.76,0,0,0-.76.76.76.76,0,1,0,1.52,0A.76.76,0,0,0,139.1,29.41Z"/><circle class="cls-3" cx="135.62" cy="29.34" r="0.76"/><path class="cls-3" d="M132.12,27.88a.76.76,0,1,0,0,1.52.76.76,0,0,0,0-1.52Z"/><path class="cls-3" d="M128.56,27.33a.76.76,0,1,0,0,1.52.76.76,0,0,0,0-1.52Z"/><circle class="cls-3" cx="125.02" cy="27.67" r="0.76"/><path class="cls-3" d="M121.43,26.65a.76.76,0,1,0,.77.76A.76.76,0,0,0,121.43,26.65Z"/><path class="cls-3" d="M117.87,26.52a.77.77,0,1,0,.77.76A.76.76,0,0,0,117.87,26.52Z"/><path class="cls-3" d="M114.3,26.54a.77.77,0,0,0-.76.77.76.76,0,0,0,.76.76.77.77,0,0,0,.77-.76A.78.78,0,0,0,114.3,26.54Z"/><circle class="cls-3" cx="110.7" cy="27.48" r="0.76"/><path class="cls-3" d="M107.14,27a.77.77,0,1,0,.77.77A.77.77,0,0,0,107.14,27Z"/><circle class="cls-3" cx="103.6" cy="28.22" r="0.76"/><circle class="cls-3" cx="100.07" cy="28.8" r="0.76"/><circle class="cls-3" cx="96.55" cy="29.54" r="0.76"/><path class="cls-3" d="M93.09,29.66a.77.77,0,0,0-.76.77.76.76,0,1,0,1.52,0A.77.77,0,0,0,93.09,29.66Z"/><circle class="cls-3" cx="89.67" cy="31.43" r="0.76"/><circle class="cls-3" cx="86.26" cy="32.6" r="0.76"/><circle class="cls-3" cx="82.92" cy="33.89" r="0.76"/><circle class="cls-3" cx="79.65" cy="35.32" r="0.76"/><path class="cls-3" d="M76.45,36.1a.76.76,0,1,0,.76.76A.76.76,0,0,0,76.45,36.1Z"/><path class="cls-3" d="M73.29,37.8a.77.77,0,1,0,.76.76A.76.76,0,0,0,73.29,37.8Z"/><circle class="cls-3" cx="70.23" cy="40.35" r="0.76"/><path class="cls-3" d="M67.22,41.53a.77.77,0,1,0,0,1.53.77.77,0,0,0,0-1.53Z"/><path class="cls-3" d="M64.29,43.59a.76.76,0,1,0,.76.76A.76.76,0,0,0,64.29,43.59Z"/><circle class="cls-3" cx="61.44" cy="46.54" r="0.76"/><circle class="cls-3" cx="58.7" cy="48.81" r="0.76"/><path class="cls-3" d="M56,50.45a.76.76,0,1,0,.76.76A.76.76,0,0,0,56,50.45Z"/><path class="cls-3" d="M53.48,53a.76.76,0,0,0-.76.76.76.76,0,1,0,1.52,0A.76.76,0,0,0,53.48,53Z"/><path class="cls-3" d="M51,55.55a.76.76,0,1,0,.76.76A.76.76,0,0,0,51,55.55Z"/><path class="cls-3" d="M48.66,58.26a.76.76,0,1,0,.76.76A.76.76,0,0,0,48.66,58.26Z"/><path class="cls-3" d="M46.42,61.06a.76.76,0,1,0,.76.76A.76.76,0,0,0,46.42,61.06Z"/><circle class="cls-3" cx="44.29" cy="64.7" r="0.76"/><path class="cls-3" d="M43.05,67.66a.76.76,0,1,0-1.52,0,.76.76,0,1,0,1.52,0Z"/><path class="cls-3" d="M40.39,71.46a.77.77,0,0,0,.77-.76.78.78,0,0,0-.77-.77.77.77,0,0,0-.76.77A.76.76,0,0,0,40.39,71.46Z"/><path class="cls-3" d="M38.64,74.57a.76.76,0,1,0-.76-.76A.76.76,0,0,0,38.64,74.57Z"/><path class="cls-3" d="M37,77.77a.76.76,0,1,0,0-1.52.76.76,0,0,0,0,1.52Z"/><circle class="cls-3" cx="35.47" cy="80.28" r="0.76"/><circle class="cls-3" cx="34.11" cy="83.59" r="0.76"/><path class="cls-3" d="M32.89,87.73a.77.77,0,1,0-.76-.77A.76.76,0,0,0,32.89,87.73Z"/><path class="cls-3" d="M31.8,91.13a.76.76,0,1,0-.76-.76A.76.76,0,0,0,31.8,91.13Z"/><path class="cls-3" d="M30.82,94.57a.77.77,0,1,0-.76-.76A.76.76,0,0,0,30.82,94.57Z"/><circle class="cls-3" cx="30.01" cy="97.29" r="0.76"/><circle class="cls-3" cx="29.35" cy="100.83" r="0.76"/><path class="cls-3" d="M28.8,105.11a.76.76,0,1,0-.76-.76A.76.76,0,0,0,28.8,105.11Z"/><path class="cls-3" d="M28.42,108.67a.76.76,0,1,0-.76-.76A.76.76,0,0,0,28.42,108.67Z"/><circle class="cls-3" cx="28.19" cy="111.49" r="0.76"/><circle class="cls-3" cx="28.08" cy="115.06" r="0.76"/><path class="cls-3" d="M28.14,119.4a.76.76,0,1,0-.77-.76A.76.76,0,0,0,28.14,119.4Z"/><path class="cls-3" d="M29.09,122.23a.76.76,0,1,0-.76.76A.76.76,0,0,0,29.09,122.23Z"/><circle class="cls-3" cx="28.66" cy="125.79" r="0.76"/><path class="cls-3" d="M29.89,129.34a.76.76,0,1,0-.76.76A.76.76,0,0,0,29.89,129.34Z"/><circle class="cls-3" cx="29.74" cy="132.84" r="0.76"/><path class="cls-3" d="M31.26,136.35a.76.76,0,1,0-.76.76A.76.76,0,0,0,31.26,136.35Z"/><path class="cls-3" d="M32.17,139.83a.76.76,0,1,0-.76.76A.76.76,0,0,0,32.17,139.83Z"/><path class="cls-3" d="M33.2,143.24a.76.76,0,1,0-1.52,0,.76.76,0,1,0,1.52,0Z"/><path class="cls-3" d="M34.41,146.63a.77.77,0,0,0-.77-.77.77.77,0,1,0,.77.77Z"/><circle class="cls-3" cx="34.94" cy="149.94" r="0.76"/><circle class="cls-3" cx="36.38" cy="153.22" r="0.76"/><path class="cls-3" d="M38,155.65a.77.77,0,0,0-.77.76.78.78,0,0,0,.77.77.77.77,0,0,0,.76-.77A.76.76,0,0,0,38,155.65Z"/><circle class="cls-3" cx="39.67" cy="159.55" r="0.76"/><circle class="cls-3" cx="41.51" cy="162.61" r="0.76"/><circle class="cls-3" cx="43.48" cy="165.61" r="0.76"/><circle class="cls-3" cx="45.56" cy="168.52" r="0.76"/><path class="cls-3" d="M47.75,170.58a.77.77,0,1,0,.76.76A.76.76,0,0,0,47.75,170.58Z"/><circle class="cls-3" cx="50.06" cy="174.08" r="0.76"/><circle class="cls-3" cx="52.45" cy="176.71" r="0.76"/><circle class="cls-3" cx="54.98" cy="179.27" r="0.76"/><circle class="cls-3" cx="57.6" cy="181.71" r="0.76"/><path class="cls-3" d="M60.32,183.27a.77.77,0,1,0,.77.77A.77.77,0,0,0,60.32,183.27Z"/><path class="cls-3" d="M63.14,185.49a.76.76,0,0,0-.76.76.77.77,0,1,0,.76-.76Z"/><path class="cls-3" d="M66,187.59a.77.77,0,1,0,.76.77A.76.76,0,0,0,66,187.59Z"/><path class="cls-3" d="M69,189.59a.77.77,0,0,0-.77.76.78.78,0,0,0,.77.77.77.77,0,0,0,.76-.77A.76.76,0,0,0,69,189.59Z"/><circle class="cls-3" cx="72.05" cy="192.23" r="0.76"/><path class="cls-3" d="M75.2,193.2a.77.77,0,0,0-.77.77.77.77,0,1,0,.77-.77Z"/><path class="cls-3" d="M78.41,194.83a.76.76,0,1,0,.76.76A.76.76,0,0,0,78.41,194.83Z"/><circle class="cls-3" cx="81.67" cy="197.06" r="0.76"/><circle class="cls-3" cx="84.99" cy="198.42" r="0.76"/><path class="cls-3" d="M88.37,198.86a.77.77,0,1,0,.76.76A.76.76,0,0,0,88.37,198.86Z"/><path class="cls-3" d="M91.79,199.93a.77.77,0,0,0-.76.77.77.77,0,0,0,1.53,0A.77.77,0,0,0,91.79,199.93Z"/><path class="cls-3" d="M95.23,200.86a.78.78,0,0,0-.77.77.77.77,0,0,0,.77.76.76.76,0,0,0,.76-.76A.77.77,0,0,0,95.23,200.86Z"/><circle class="cls-3" cx="98.74" cy="202.41" r="0.76"/><path class="cls-3" d="M102.24,202.3a.76.76,0,1,0,.77.76A.76.76,0,0,0,102.24,202.3Z"/><circle class="cls-3" cx="105.81" cy="203.56" r="0.76"/><path class="cls-3" d="M109.38,203.15a.77.77,0,0,0-.77.77.77.77,0,1,0,.77-.77Z"/><path class="cls-3" d="M112.92,203.37a.77.77,0,0,0-.76.77.76.76,0,0,0,.76.76.77.77,0,0,0,.77-.76A.78.78,0,0,0,112.92,203.37Z"/><circle class="cls-3" cx="116.9" cy="204.24" r="0.76"/><path class="cls-3" d="M120.83,203.37a.77.77,0,0,0-.77.77.77.77,0,1,0,.77-.77Z"/><circle class="cls-3" cx="124.66" cy="203.84" r="0.76"/><path class="cls-3" d="M128.23,202.68a.77.77,0,1,0,.76.77A.76.76,0,0,0,128.23,202.68Z"/><circle class="cls-3" cx="131.78" cy="202.9" r="0.76"/><circle class="cls-3" cx="135.29" cy="202.22" r="0.76"/><path class="cls-3" d="M138.75,200.64a.76.76,0,0,0-.77.76.77.77,0,1,0,1.53,0A.76.76,0,0,0,138.75,200.64Z"/><circle class="cls-3" cx="142.22" cy="200.43" r="0.76"/><path class="cls-3" d="M145.62,198.56a.77.77,0,1,0,.77.77A.76.76,0,0,0,145.62,198.56Z"/><path class="cls-3" d="M149,197.32a.77.77,0,0,0-.77.77.77.77,0,1,0,.77-.77Z"/><path class="cls-3" d="M152.25,195.94a.77.77,0,1,0,.77.77A.77.77,0,0,0,152.25,195.94Z"/><path class="cls-3" d="M155.5,194.42a.76.76,0,1,0,.76.76A.76.76,0,0,0,155.5,194.42Z"/><circle class="cls-3" cx="158.69" cy="193.55" r="0.76"/><circle class="cls-3" cx="161.79" cy="191.78" r="0.76"/><circle class="cls-3" cx="164.8" cy="189.9" r="0.76"/><circle class="cls-3" cx="167.76" cy="187.89" r="0.76"/><path class="cls-3" d="M170.64,185a.76.76,0,1,0,.76.76A.76.76,0,0,0,170.64,185Z"/><path class="cls-3" d="M173.42,182.75a.76.76,0,1,0,0,1.52.76.76,0,0,0,0-1.52Z"/><circle class="cls-3" cx="176.12" cy="181.15" r="0.76"/><circle class="cls-3" cx="178.7" cy="178.69" r="0.76"/><path class="cls-3" d="M181.21,175.35a.77.77,0,0,0-.76.77.77.77,0,0,0,1.53,0A.77.77,0,0,0,181.21,175.35Z"/><path class="cls-3" d="M183.6,172.69a.78.78,0,0,0-.77.77.77.77,0,0,0,.77.76.76.76,0,0,0,.76-.76A.77.77,0,0,0,183.6,172.69Z"/><path class="cls-3" d="M185.89,169.92a.77.77,0,0,0-.76.77.76.76,0,0,0,1.52,0A.77.77,0,0,0,185.89,169.92Z"/><path class="cls-3" d="M188.05,167.08a.77.77,0,1,0,.77.76A.76.76,0,0,0,188.05,167.08Z"/><path class="cls-3" d="M190.12,164.14a.77.77,0,1,0,.76.76A.76.76,0,0,0,190.12,164.14Z"/><circle class="cls-3" cx="192.05" cy="161.89" r="0.76"/><circle class="cls-3" cx="193.85" cy="158.78" r="0.76"/><path class="cls-3" d="M195.54,154.86a.77.77,0,0,0-.76.77.77.77,0,0,0,1.53,0A.77.77,0,0,0,195.54,154.86Z"/><path class="cls-3" d="M197.1,151.63a.76.76,0,0,0-.76.76.77.77,0,0,0,.76.77.78.78,0,0,0,.77-.77A.77.77,0,0,0,197.1,151.63Z"/><circle class="cls-3" cx="198.51" cy="149.11" r="0.76"/><path class="cls-3" d="M199.79,145a.76.76,0,1,0,.76.76A.76.76,0,0,0,199.79,145Z"/><path class="cls-3" d="M201,141.59a.76.76,0,1,0,.76.76A.76.76,0,0,0,201,141.59Z"/><circle class="cls-3" cx="201.96" cy="138.91" r="0.76"/><path class="cls-3" d="M202.82,134.67a.77.77,0,0,0-.76.77.76.76,0,1,0,1.52,0A.77.77,0,0,0,202.82,134.67Z"/><path class="cls-3" d="M203.55,131.17a.77.77,0,0,0-.77.77.77.77,0,1,0,.77-.77Z"/><circle class="cls-3" cx="204.12" cy="128.4" r="0.76"/></g><circle class="cls-4" cx="188.34" cy="61.42" r="27.5"/><circle class="cls-4" cx="44.76" cy="61.42" r="27.5"/><circle class="cls-4" cx="116.55" cy="27.5" r="27.5"/><circle class="cls-4" cx="33.37" cy="130.02" r="27.5"/><circle class="cls-4" cx="199.73" cy="130.02" r="27.5"/><path class="cls-5" d="M135.43,97.94a3.84,3.84,0,0,0-3.26,3.58,3.31,3.31,0,0,0,3.26,3.38c.91,0,2-1.74,2-3.48S136.6,98.08,135.43,97.94Z"/><path class="cls-6" d="M136.55,98.6c-.22,0,.33,1.24.3,2.82,0,1.23-.6,2.71-.35,2.79s1.13-1.27,1.13-2.79S137,98.64,136.55,98.6Z"/><path class="cls-5" d="M135.35,105.39a3.84,3.84,0,0,0-3.27,3.58,3.32,3.32,0,0,0,3.27,3.38c.9,0,4-.82,4-3.28C139.31,106.8,136.51,105.52,135.35,105.39Z"/><path class="cls-6" d="M136.46,106.05c-.22,0,.33,1.24.31,2.82,0,1.22-.61,2.71-.36,2.79s1.58-1.28,1.58-2.8S136.9,106.08,136.46,106.05Z"/><path class="cls-5" d="M135.08,113a3.64,3.64,0,0,0-3.08,3.39,3.12,3.12,0,0,0,3.08,3.19c.85,0,3.83-1,3.83-3.29S136.18,113.15,135.08,113Z"/><path class="cls-6" d="M136.13,113.65c-.2,0,.31,1.17.29,2.66,0,1.16-.57,2.57-.34,2.64s1.24-1.21,1.24-2.65S136.55,113.68,136.13,113.65Z"/><path class="cls-5" d="M135.12,120.28a3.5,3.5,0,0,0-3,3.27,3,3,0,0,0,3,3.09c.83,0,1.8-1.59,1.85-3.18S136.19,120.4,135.12,120.28Z"/><path class="cls-6" d="M136.14,120.88c-.19,0,.31,1.14.28,2.58,0,1.12-.55,2.48-.32,2.55s1-1.16,1-2.55S136.55,120.91,136.14,120.88Z"/><path class="cls-5" d="M86,131.7c.05,4.39,8.38,12.57,15.72,13.8s29.55-13.4,29.13-16.15S119,103.9,113.15,105.13,85.86,124.33,86,131.7Z"/><path class="cls-5" d="M86,126.13,41.78,196.35H77.66s24.32-49.43,26-50.85S86,126.13,86,126.13Z"/><path class="cls-7" d="M130.68,127.87s-28.36,3.48-30.1,5.37.58,12.14,3.1,12.26S127.06,137.37,130.68,127.87Z"/><path class="cls-7" d="M136.5,104.21l-4.33,3.19,6.74,3.07L132,116.41l6.49,1.3-6.35,5.84s4.13,2.63,3.56,2.86-6.94,5.69-6.94,5.69l.69-28.95Z"/><path class="cls-7" d="M100,135s-1.3,1.44-5,1.72a17.74,17.74,0,0,0-5.76,1.21c-.71.22,11.43,6.61,10.75,9.63s-27.88,48.82-27.88,48.82h5.57l29.1-56.74Z"/><polygon class="cls-8" points="75.2 140.59 99.2 156.68 71.89 211.54 27.28 211.54 75.2 140.59"/><rect class="cls-9" x="101.51" y="79.56" width="29.76" height="51.38"/><path class="cls-10" d="M130.72,76.2h-28.6a2.55,2.55,0,0,0-2.48,2.61v52.4a2.55,2.55,0,0,0,2.48,2.61h28.6a2.55,2.55,0,0,0,2.48-2.61V78.81A2.55,2.55,0,0,0,130.72,76.2Zm0,51.67H102.15V82.59h28.53Z"/><path class="cls-11" d="M120.29,78.54h-7.75a1,1,0,0,0,0,2h7.75a1,1,0,1,0,0-2Z"/><path class="cls-12" d="M119.61,78.84h-6.49a.73.73,0,1,0,0,1.44h6.49a.73.73,0,1,0,0-1.44Z"/><rect class="cls-11" x="113.39" y="129.22" width="6.06" height="3.26" rx="0.98"/><path class="cls-13" d="M130,82.59h-27.8v26.65C114.48,107.64,124.93,95.94,130,82.59Z"/><path class="cls-5" d="M97.54,137.31c1.72-.8,5-3.94,4.61-13.57-.16-3.71-3.3-7.31-3.2-10.9.09-3-.77-10.59-.77-11.06,0-.78,2.32-5.49,1.89-8.66s-2.2-5.7-3-5.27c-1.54.82-1.47,3.4-2.92,6.55s-3.39,6.15-3.52,7.38c-.77,7.08-6.22,18.31-6.14,26.8C84.51,132.06,91.48,140.13,97.54,137.31Z"/><path class="cls-6" d="M94.68,93.1c.15.4,1.58,0,1.92-.31s1.43-4.23,1.15-4.44a2.17,2.17,0,0,0-1.06-.55C96.59,87.8,94.43,92.46,94.68,93.1Z"/><path class="cls-5" d="M137.86,196.35s-.73-10.3-2.54-12.17-4.48-4.89-5.71-6.18c-1.67-1.75-7.37-11.07-7.67-11.94a69.08,69.08,0,0,0-6.55-13.72c-1.68-2.17-5.24-3.32-4.86-4.78s5.28-3.38,8.84-.39S127,157.91,127,157.91a72.08,72.08,0,0,0-1.39-7.4c-1.15-4.12-4.08-14.18-4.88-16.72-1-3.23-3.89-11.27-4.2-12.89s-1.37-4.52,1.26-5.57c2.43-1,3.87,1.45,5,4s4.33,10.77,5.54,14a69.16,69.16,0,0,0,4.65,9.76,4.94,4.94,0,0,0,2.57,1.58s.37-3.59.53-5.27c.08-.77.33-3.88,3.46-4,2.92-.14,3.85,3.47,3.85,3.47a3.22,3.22,0,0,1,2.23-.69c1.4.11,2.26.93,2.78,2.53.2.61.55,2.23.55,2.23a2.56,2.56,0,0,1,2.14-.5c1.29.27,1.92,2,2.26,3a96,96,0,0,1,3,10.77c.36,2.63-.38,15.88,0,17.87s6.27,22.24,6.27,22.24Z"/><path class="cls-6" d="M118.26,115.33a2.32,2.32,0,0,1,2.65.5,10.66,10.66,0,0,1,1.47,4.67c-.19.61-3,1.86-3.62,1.59-.88-.35-1.9-3.44-2.05-4.35A2.13,2.13,0,0,1,118.26,115.33Z"/><path class="cls-7" d="M121,148.74a60.93,60.93,0,0,1,5.14,7.49c.34.58.94,1.68.94,1.68a36,36,0,0,0-.81,4.77,21.11,21.11,0,0,0,.84,4.53,9.65,9.65,0,0,1-2-5.78,46,46,0,0,0-.1-4.94C124.6,153.94,121,148.74,121,148.74Z"/><path class="cls-7" d="M143.37,138.86a68.37,68.37,0,0,0,.51,7.54c.4,1.41,1.1,2.32,1.62,2.28.73-.07.71-1.21.18-2.83S143.37,138.86,143.37,138.86Z"/><path class="cls-7" d="M148.93,142.93a36.43,36.43,0,0,0,.83,5.47c.47,1.29.79,2,1.36,2s.69-.58.39-1.55A61.94,61.94,0,0,0,148.93,142.93Z"/><path class="cls-7" d="M132.72,142.67A5.38,5.38,0,0,0,134,145a2.82,2.82,0,0,0,1.54.88v-1.22a12.18,12.18,0,0,1-1.44-.59A3.27,3.27,0,0,1,132.72,142.67Z"/><path class="cls-14" d="M118.76,122.09h0c.64.26,3.26-.91,3.59-1.53a3.88,3.88,0,0,0-2.11.24A2.67,2.67,0,0,0,118.76,122.09Z"/><path class="cls-7" d="M141,185.13c-2.63-2.81-6.52-5-9.83-8s-7.4-9.84-8-11.5c-2-5.54-5.27-11.13-6.37-12.4-2.25-2.58.41-3.54-2.79-2.23a8.28,8.28,0,0,1,1.37,1.34,69.08,69.08,0,0,1,6.55,13.72c.3.87,6,10.19,7.67,11.94,1.23,1.29,3.9,4.31,5.71,6.18s2.54,12.17,2.54,12.17h4.75C141.62,193,142.88,187.12,141,185.13Z"/><path class="cls-6" d="M114.88,151.68a2.61,2.61,0,0,0,.91-1.34c-.07-.21-2.71-2.66-3.79-2.78s-1.9.21-1.93.48A30.54,30.54,0,0,0,114.88,151.68Z"/><path class="cls-15" d="M156.3,156.24a96,96,0,0,0-3-10.77c-.34-1-1-2.77-2.26-3a2.56,2.56,0,0,0-2.14.5s-.35-1.62-.55-2.23c-.52-1.6-1.38-2.42-2.78-2.53a3.22,3.22,0,0,0-2.23.69,6.53,6.53,0,0,0-.51-1.25,43.62,43.62,0,0,0-5.08,24.59c1.18,13.55,5.12,26.12,14.85,34.15h10s-5.85-20.25-6.27-22.24S156.66,158.87,156.3,156.24Z"/><path class="cls-16" d="M120.56,124.42a2.77,2.77,0,0,1,1.27-.83,2.65,2.65,0,0,1,1.48,0,5.29,5.29,0,0,0-2.75.88Z"/><path class="cls-16" d="M120.7,124.86A2.77,2.77,0,0,1,122,124a2.65,2.65,0,0,1,1.48,0,4.2,4.2,0,0,0-1.44.25A4,4,0,0,0,120.7,124.86Z"/><path class="cls-16" d="M123.71,132.36a2.84,2.84,0,0,1,1.27-.83,2.64,2.64,0,0,1,1.48-.05,4.16,4.16,0,0,0-1.43.25A4.11,4.11,0,0,0,123.71,132.36Z"/><path class="cls-16" d="M123.85,132.79a2.87,2.87,0,0,1,1.27-.82,2.53,2.53,0,0,1,1.48-.05,4.16,4.16,0,0,0-1.43.25A4.26,4.26,0,0,0,123.85,132.79Z"/><polygon class="cls-8" points="135.75 211.54 137.06 195.47 162.29 192.29 166.02 211.54 135.75 211.54"/><g class="cls-17"><path class="cls-18" d="M50.61,49.54l0-.59v-.1c0-.21,0-.41,0-.61v-.07c0-.21-.05-.42-.08-.63v0a5.68,5.68,0,0,0-3.62-4.77h0a7.07,7.07,0,0,0-.85-.29h0a12.48,12.48,0,0,0-1.86-.37V31.24a2.44,2.44,0,0,0,.34-4.78l1.79-3.79h-9.4l1.78,3.79a2.45,2.45,0,0,0,.34,4.78V42.08c-6.87.81-6.52,5.63-6.52,9.49V84c0,3.18,9.1,3,9.1,3a26.34,26.34,0,0,0,6.14-.66h0l.25-.07.44-.15.27-.1.39-.16.22-.11c.18-.1.35-.2.51-.31l.08-.07.33-.3.1-.14a1.44,1.44,0,0,0,.19-.31,1.47,1.47,0,0,0,.06-.14,1.45,1.45,0,0,0,.1-.51V51.57c0-.62,0-1.27,0-1.92Z"/><path class="cls-18" d="M59.16,84.45A94.28,94.28,0,0,1,60,71h0c2.32-.7,6.07-3.8,2.78-17.16-.09-.35-2.83-.54-4.36-.54s-4.27.19-4.36.54C50.73,67.2,54.47,70.3,56.8,71h0a94.28,94.28,0,0,1,.8,13.45s-4.13.43-4.13,1.14,2.92,1,4.91,1.06,4.9-.35,4.9-1.06S59.16,84.45,59.16,84.45Z"/></g><path class="cls-19" d="M42.39,40.08V26.81l-2.57.58-2.58-.58V40.08c-6.87.81-6.52,5.63-6.52,9.49V82c0,3.18,9.1,3,9.1,3s9.1.15,9.1-3V49.57C48.92,45.71,49.27,40.89,42.39,40.08Z"/><polygon class="cls-20" points="39.82 20.67 35.12 20.67 37.04 24.75 39.82 24.75 42.59 24.75 44.52 20.67 39.82 20.67"/><path class="cls-19" d="M44.52,26.81a2.46,2.46,0,0,1-2.46,2.46H37.58a2.46,2.46,0,0,1-2.46-2.46h0a2.46,2.46,0,0,1,2.46-2.46h4.48a2.46,2.46,0,0,1,2.46,2.46Z"/><path class="cls-3" d="M36.5,26s-1.72,3.25,2.65,2.84c0,0-1.13-2,0-3.23A3.18,3.18,0,0,0,36.5,26Z"/><polygon class="cls-3" points="37.66 29.71 39.44 29.71 38.58 40.21 37.66 29.71"/><path class="cls-21" d="M42.06,29.27a2.46,2.46,0,1,0,0-4.92h-.63S44.92,25.82,42.06,29.27Z"/><path class="cls-22" d="M37.26,41.82c-4.64,0-5.31,3.91-5.41,6.09s0,34.07,0,34.07c1,.9,1.74,1.5,4.31,1.69,0,0,3.54.73,3.48-4.2s-.5-33.91-.5-33.91S39.44,41.82,37.26,41.82Z"/><path class="cls-21" d="M44.25,40.45A4.41,4.41,0,0,1,46,44.38c-.07,2.79,0,32.16,0,40,1.63-.43,3-1.16,3-2.37V49.57C48.92,46.1,49.18,41.86,44.25,40.45Z"/><path class="cls-23" d="M47.78,57s-6.45-1.81-15.93,0C31.85,57,38.11,62.75,47.78,57Z"/><path class="cls-24" d="M31.85,57a11.61,11.61,0,0,0,7,2.55c0-1.14,0-2.25.07-3.33A44.5,44.5,0,0,0,31.85,57Z"/><path class="cls-24" d="M39.82,58.37s-5.53.08-8-1.39V82c0,.92,3.13,1.9,7.78,1.9H40a27.35,27.35,0,0,0,4.72-.41c2.12-.4,3.07-1,3.07-1.49V57C45.35,58.45,39.82,58.37,39.82,58.37Z"/><path class="cls-25" d="M31.85,57V82c0,.84,3.24,1.76,7.3,1.9,0-1.51.29-16.8.12-25.51C37.6,58.32,33.67,58.08,31.85,57Z"/><path class="cls-26" d="M46,69.51a6.14,6.14,0,0,1-6.14,6.14h0a6.14,6.14,0,0,1-6.15-6.14V56a6.15,6.15,0,0,1,6.15-6.15h0A6.15,6.15,0,0,1,46,56Z"/><path class="cls-3" d="M32.9,50s.71-4.39,4.76-4.39c0,0,.65-2.62-1.3-2.84S31.75,46,32.9,50Z"/><path class="cls-27" d="M39.22,49.94A6.12,6.12,0,0,0,33.67,56V69.51a6.12,6.12,0,0,0,5.55,6.08Z"/><path class="cls-28" d="M37.75,58.93a4.47,4.47,0,0,0-.8-.35,1.36,1.36,0,0,0,.16.5.22.22,0,0,0-.29-.1,1.79,1.79,0,0,0,.3.52s0,0-.28-.06c0,0,.45.3.43.57,0,0-.87-.66-1.51-.5a.68.68,0,0,1,.22.26,1.65,1.65,0,0,0-.92.1s.16.24.25.27a8.71,8.71,0,0,0-.85.23h-.2l.1,0-.09,0h.17c.38.15.84.28.84.28S35,61,35,61a1.7,1.7,0,0,0,.91.17.63.63,0,0,1-.24.24c.62.22,1.54-.36,1.54-.36,0,.27-.48.53-.48.53a.72.72,0,0,0,.29,0,1.72,1.72,0,0,0-.35.49c.22.08.3-.07.3-.07a1.54,1.54,0,0,0-.2.48,4.56,4.56,0,0,0,.83-.29.64.64,0,0,1-.15.31,1.94,1.94,0,0,0,1-.62l-.09.42c1.11-.24,1.56-1.61,1.56-1.61s-.33-1.4-1.41-1.73l0,.42a2,2,0,0,0-.91-.7A.62.62,0,0,1,37.75,58.93Z"/><path class="cls-28" d="M42.94,58.73a4.91,4.91,0,0,0,.65-.58,1.5,1.5,0,0,0-.52-.06s.18,0,.21-.23a1.7,1.7,0,0,0-.6.06s.06,0,.18-.23c0,0-.47.29-.7.15,0,0,1-.52,1.07-1.16a.69.69,0,0,1-.33.09,1.65,1.65,0,0,0,.3-.88,1,1,0,0,0-.35.12s.1-.48.15-.87l.09-.18L43,55v-.09l-.08.16c-.28.27-.6.64-.6.64a1,1,0,0,0-.11-.35,1.68,1.68,0,0,0-.54.76.65.65,0,0,1-.11-.32c-.46.47-.31,1.55-.31,1.55-.25-.11-.29-.65-.29-.65-.1.21-.09.27-.09.28a1.67,1.67,0,0,0-.3-.53c-.17.17-.06.31-.06.31a1.59,1.59,0,0,0-.35-.39,4.45,4.45,0,0,0-.09.87.76.76,0,0,1-.22-.26A2,2,0,0,0,40,58.15l-.33-.25A2.51,2.51,0,0,0,40.5,60a2.51,2.51,0,0,0,2.16-.57l-.41-.12a2,2,0,0,0,1-.54A.63.63,0,0,1,42.94,58.73Z"/><path class="cls-23" d="M44.44,63.66a1.15,1.15,0,1,1-1.28-1A1.15,1.15,0,0,1,44.44,63.66Z"/><path class="cls-25" d="M38.91,61.57a.84.84,0,0,1-.73.94.85.85,0,0,1-.94-.74.84.84,0,1,1,1.67-.2Z"/><path class="cls-25" d="M40.49,62.53a1.15,1.15,0,1,1-1.28-1A1.16,1.16,0,0,1,40.49,62.53Z"/><path class="cls-29" d="M38.35,63.94a1.15,1.15,0,0,1-2.28.27,1.15,1.15,0,0,1,2.28-.27Z"/><path class="cls-25" d="M40.62,63.67a1.14,1.14,0,1,1-1.27-1A1.13,1.13,0,0,1,40.62,63.67Z"/><path class="cls-25" d="M37.78,62.15a1.14,1.14,0,1,1-1.27-1A1.14,1.14,0,0,1,37.78,62.15Z"/><path class="cls-29" d="M40.62,60.66a1.15,1.15,0,1,1-1.27-1A1.14,1.14,0,0,1,40.62,60.66Z"/><path class="cls-23" d="M43.73,60.68a1.15,1.15,0,1,1-1.28-1A1.16,1.16,0,0,1,43.73,60.68Z"/><path class="cls-25" d="M42.68,61.56a1.15,1.15,0,1,1-1.28-1A1.16,1.16,0,0,1,42.68,61.56Z"/><path class="cls-25" d="M42.1,59.73a1.14,1.14,0,1,1-1.27-1A1.14,1.14,0,0,1,42.1,59.73Z"/><path class="cls-29" d="M41.9,64.67a1.15,1.15,0,1,1-1.28-1A1.15,1.15,0,0,1,41.9,64.67Z"/><path class="cls-23" d="M43.52,65.63a1.15,1.15,0,1,1-1.28-1A1.16,1.16,0,0,1,43.52,65.63Z"/><path class="cls-23" d="M40.91,66.08a1.14,1.14,0,1,1-2.27.27,1.14,1.14,0,0,1,2.27-.27Z"/><path class="cls-23" d="M40.58,68.55a1.14,1.14,0,1,1-1.27-1A1.15,1.15,0,0,1,40.58,68.55Z"/><path class="cls-25" d="M40.26,70.28a1.15,1.15,0,1,1-1.27-1A1.15,1.15,0,0,1,40.26,70.28Z"/><path class="cls-29" d="M42.31,66.93a1.29,1.29,0,1,1-1.43-1.12A1.29,1.29,0,0,1,42.31,66.93Z"/><path class="cls-29" d="M39.86,67.44a.82.82,0,0,1-.72.91.81.81,0,0,1-.91-.71.82.82,0,0,1,.72-.91A.81.81,0,0,1,39.86,67.44Z"/><path class="cls-25" d="M39.62,64.94a1.14,1.14,0,1,1-1.27-1A1.15,1.15,0,0,1,39.62,64.94Z"/><path class="cls-25" d="M41.62,62.4a1.14,1.14,0,1,1-1.27-1A1.13,1.13,0,0,1,41.62,62.4Z"/><path class="cls-29" d="M43.9,62.13a1.15,1.15,0,1,1-1.27-1A1.15,1.15,0,0,1,43.9,62.13Z"/><path class="cls-25" d="M43,63.84a1.15,1.15,0,1,1-1.27-1A1.15,1.15,0,0,1,43,63.84Z"/><path class="cls-25" d="M41.59,69a1.13,1.13,0,1,1-1.25-1A1.14,1.14,0,0,1,41.59,69Z"/><path class="cls-23" d="M39.4,63.11a1.14,1.14,0,1,1-1.27-1A1.14,1.14,0,0,1,39.4,63.11Z"/><path class="cls-30" d="M39.28,59.44a1.72,1.72,0,0,0-.79-.54l0,.42a2,2,0,0,0-.91-.7.62.62,0,0,1,.12.31,4.47,4.47,0,0,0-.8-.35,1.36,1.36,0,0,0,.16.5.22.22,0,0,0-.29-.1,1.79,1.79,0,0,0,.3.52s0,0-.28-.06c0,0,.45.3.43.57,0,0-.87-.66-1.51-.5a.68.68,0,0,1,.22.26,1.65,1.65,0,0,0-.92.1s.16.24.25.27a8.71,8.71,0,0,0-.85.23h-.2l.1,0-.09,0h.17c.38.15.84.28.84.28S35,61,35,61a1.7,1.7,0,0,0,.91.17.63.63,0,0,1-.24.24.85.85,0,0,0,.24,0,1.09,1.09,0,0,0-.41,1,1.12,1.12,0,0,0,.8.95,1.18,1.18,0,0,0-.24.84,1.15,1.15,0,0,0,1.28,1,1.15,1.15,0,0,0,1.27,1h0a.66.66,0,0,0,0,.14.91.91,0,0,0,.14.43.79.79,0,0,0-.3,1.34,1.09,1.09,0,0,0-.17.71,1.2,1.2,0,0,0,.27.58,1.14,1.14,0,0,0,.67,2.14h0Zm-2.17,1.82-.19-.08a2.22,2.22,0,0,0,.3-.16A.43.43,0,0,1,37.11,61.26Z"/><path class="cls-21" d="M56.68,51.3c-1.53,0-4.27.19-4.36.54s2.17.6,4.36.47c2.19.13,4.44-.12,4.36-.47S58.21,51.3,56.68,51.3Z"/><path class="cls-22" d="M61,51.84a14.47,14.47,0,0,1-4.36.47,11.68,11.68,0,0,1-4.36-.47c-4.55,18.48,4.36,17.34,4.36,17.34S65.59,70.32,61,51.84Z"/><path class="cls-21" d="M57.46,82.45A94.28,94.28,0,0,1,58.26,69l-1.58.18L55.1,69a94.28,94.28,0,0,1,.8,13.45s-4.13.43-4.13,1.14,2.92,1,4.91,1.06,4.9-.35,4.9-1.06S57.46,82.45,57.46,82.45Z"/><path class="cls-3" d="M56.68,52.31a18.2,18.2,0,0,1-3.11-.18,41.73,41.73,0,0,0-.94,6.46c-.11,2.9-.11,7.57,2.08,7.6,2,0,2.09-11.55,2.09-13.88Z"/><path class="cls-23" d="M52,58.34a33.77,33.77,0,0,1,9.34-.06A10.33,10.33,0,0,1,52,58.34Z"/><path class="cls-24" d="M52.65,58.24c0,.12,0,.24,0,.35v0a9.62,9.62,0,0,0,3.92.82L56.64,58A38,38,0,0,0,52.65,58.24Z"/><path class="cls-24" d="M61.3,58.3a16.38,16.38,0,0,1-9.29,0c-.44,4.78.43,7.25,1.42,8.52a3.76,3.76,0,0,0,2.94,1.49h.16l.15,0H57a3.76,3.76,0,0,0,2.94-1.49c1-1.28,1.87-3.75,1.42-8.58Z"/><path class="cls-25" d="M52.63,58.5v.09c-.11,2.9-.11,7.57,2.08,7.6,1.1,0,1.62-3.59,1.87-7.19A17.12,17.12,0,0,1,52.63,58.5Z"/><path class="cls-3" d="M55.5,69.1a2.32,2.32,0,0,0,1.18.08l-.1,12.07Z"/><path class="cls-3" d="M56.09,82.88s-3.22.45-3.46.83S58.87,84.94,56.09,82.88Z"/><path class="cls-31" d="M139,16.83l-.18-.2c-.24-.27-.49-.54-.75-.8l-.17-.18C133.46,11.23,126.82,8.22,120,9.1c-5.47-3.73-14.91-3.36-17.75-.83L97.84,6.55S98.33,4,96.38,3.34,92.26,5.74,94.47,7c-2.48-.56-2.92,3.17-1,4s3.24-1.4,3.24-1.4l4.23,1.63a5.08,5.08,0,0,0,.64,3.27,19.1,19.1,0,0,0-4,.7l-.11,0c-.36.11-.7.23-1,.37l-.13.05a10.59,10.59,0,0,0-1,.46h0a7.43,7.43,0,0,0-.86.55l-.16.12a7.65,7.65,0,0,0-.74.65l-.08.1a4.92,4.92,0,0,0-.57.71l-.1.14c-.07.11-.13.23-.2.35l0,.06L88,17.42s.35-3-1.93-3.55S81.58,17,84.21,18.2c-2.88-.44-3.07,3.85-.87,4.64S86.93,21,86.93,21l2.79.85c-3.09,2.63-4.87,5.71-4.85,9,0,9.53,15.18,17.18,33.8,17.08S152.33,40,152.28,30.46C152.25,24.88,147,20,139,16.83Z"/><path class="cls-22" d="M150.58,28.46c0,9.53-15,17.34-33.61,17.44s-33.75-7.55-33.8-17.08,15-17.33,33.61-17.43S150.53,18.93,150.58,28.46Z"/><path class="cls-25" d="M147.86,28.47c0,8.76-13.79,15.94-30.9,16s-31-6.93-31.07-15.69,13.79-15.94,30.9-16S147.81,19.71,147.86,28.47Z"/><path class="cls-3" d="M144.93,28.49c0,7.93-12.48,14.43-28,14.51S88.86,36.72,88.82,28.79s12.48-14.43,28-14.51S144.89,20.56,144.93,28.49Z"/><path class="cls-32" d="M132.44,28.56c0,4.4-6.92,8-15.52,8.05s-15.59-3.48-15.61-7.88,6.93-8,15.52-8.06S132.42,24.16,132.44,28.56Z"/><path class="cls-21" d="M113.36,32.05c-.6-1.5-2.36-2.25-4.32-2.41a1.87,1.87,0,0,0,1.11-.88,3.39,3.39,0,0,1-2.15.63,3,3,0,0,1,.56-1.35,3.64,3.64,0,0,0-1.12,1.13,3.68,3.68,0,0,1-1.16-1.29,1,1,0,0,0,.06,1.17c-2-1.38-5.08-1.52-5.93,2.21A6.11,6.11,0,0,0,105.28,39a6.81,6.81,0,0,0,7.1-2.34,4.66,4.66,0,0,0,1.09,1.13,4.56,4.56,0,0,0,6.37-1Z"/><path class="cls-21" d="M140.77,31.08c.16-.3.3-.6.43-.91,0-.06.05-.11.07-.17.12-.31.22-.62.31-.94l0-.14a6.94,6.94,0,0,0,.2-1v0c0-.35.07-.7.08-1.06v-.06a9.66,9.66,0,0,0,0-1.07v-.1q-.06-.54-.15-1.08a.64.64,0,0,1,0-.07c-2.14-11.24-20.6-23-34.22-9.85,0,0-6.22-1-11.14.39l-.3.08-.34.11-.31.11-.31.12-.34.14-.27.12-.55.28-.19.12a3.13,3.13,0,0,0-.36.22l-.22.15a3.55,3.55,0,0,0-.31.23l-.2.16-.31.28-.15.15a4.6,4.6,0,0,0-.41.47.24.24,0,0,0-.06.08c-.11.14-.21.29-.31.44l-.11.18c-.07.13-.14.26-.2.39A1.47,1.47,0,0,0,91,19c-.06.14-.12.28-.17.43s0,.13-.07.2a5.2,5.2,0,0,0-.17.68C89,28.59,102.76,38.81,109.44,35.27c0,0,22,8.65,30.66-3.14a9.4,9.4,0,0,0,.57-.88.43.43,0,0,1,0-.07Z"/><path class="cls-26" d="M95.55,6.07l5.22,2-.59,1.52L95,7.59S93.61,9.82,91.73,9s-1.44-4.55,1-4Z"/><path class="cls-26" d="M95.55,6.07l5.22,2,.59-1.51-5.22-2S96.63,2,94.68,1.34,90.56,3.74,92.77,5Z"/><path class="cls-26" d="M85.77,17.2l6.12,1.87-.55,1.78L85.23,19s-1.37,2.65-3.59,1.86-2-5.08.87-4.64Z"/><path class="cls-26" d="M85.77,17.2l6.12,1.87.54-1.78-6.11-1.87s.35-3-1.93-3.55S79.88,15,82.51,16.2Z"/><path class="cls-33" d="M100,12.76a5.2,5.2,0,0,1,0-5.83c2-3.36,14.15-4,19.66,1.24S104.34,21.94,100,12.76Z"/><path class="cls-20" d="M109.06,33.45s22,8.65,30.66-3.15S124-3.61,107.1,12.76c0,0-15.34-2.5-16.91,5.75S102.38,37,109.06,33.45Z"/><path class="cls-34" d="M135.31,12.81c2.14,3.41,2.66,7.26.46,10.26-6.83,9.32-24.22,2.48-24.22,2.48-5.28,2.8-16.15-5.28-14.91-11.8a4.68,4.68,0,0,1,.27-.85c-3.21.7-6.08,2.28-6.72,5.61C88.62,26.77,102.38,37,109.06,33.45c0,0,22,8.65,30.66-3.15C143.55,25.08,140.91,17.85,135.31,12.81Z"/><path class="cls-35" d="M140.72,27.41c-8.65,11.8-30.67,3.15-30.67,3.15-6.5,3.44-19.7-6.15-19-14.27a5.88,5.88,0,0,0-.91,2.22C88.62,26.77,102.38,37,109.06,33.45c0,0,22,8.65,30.66-3.15a9,9,0,0,0,1.65-3.93A10.52,10.52,0,0,1,140.72,27.41Z"/><path class="cls-36" d="M80.87,17.8s-.85,1.9,1,2.43A1.32,1.32,0,0,0,83.76,19,2.66,2.66,0,0,1,80.87,17.8Z"/><path class="cls-36" d="M91.22,6.48s-.76,1.7.89,2.18a1.19,1.19,0,0,0,1.71-1.07A2.4,2.4,0,0,1,91.22,6.48Z"/><path class="cls-36" d="M82,13.71s-.77,1.7.88,2.18a1.2,1.2,0,0,0,1.72-1.07A2.39,2.39,0,0,1,82,13.71Z"/><path class="cls-36" d="M92.57,2.91s-.6,1.33.7,1.71a.94.94,0,0,0,1.35-.84A1.9,1.9,0,0,1,92.57,2.91Z"/><path class="cls-24" d="M113.47,36.79a4.56,4.56,0,0,0,6.37-1l-7.38-5.36A4.56,4.56,0,0,0,113.47,36.79Z"/><path class="cls-23" d="M118.41,35.89a2.31,2.31,0,0,1-1.3.9c-2.2.53-4.31-.81-4.76-3.46a2.92,2.92,0,0,1,.37-1.73h0c.24-.32.82-.07.92.42a3.68,3.68,0,0,0,4.24,3.2c.5,0,.77.34.53.67Z"/><path class="cls-25" d="M114.79,34.81c-1,.31-.57.79-.57.79S114.8,35.85,114.79,34.81Z"/><path class="cls-25" d="M115.37,35.26c-.84.6-.3.92-.3.92S115.7,36.25,115.37,35.26Z"/><path class="cls-25" d="M116.29,35.6c-1,.37-.52.82-.52.82S116.37,36.63,116.29,35.6Z"/><path class="cls-25" d="M116.93,35.66c-.58.64-.07.81-.07.81S117.38,36.4,116.93,35.66Z"/><path class="cls-25" d="M118,35.51c-.64.33-.3.6-.3.6S118.08,36.22,118,35.51Z"/><path class="cls-25" d="M114.18,34.4c-.3,1-.78.57-.78.57S113.15,34.39,114.18,34.4Z"/><path class="cls-25" d="M113.68,33.49c-.06,1-.62.74-.62.74S112.67,33.73,113.68,33.49Z"/><path class="cls-25" d="M113.56,33c-.43.75-.74.32-.74.32S112.72,32.8,113.56,33Z"/><path class="cls-25" d="M113.31,32.13c-.12.71-.49.47-.49.47S112.59,32.23,113.31,32.13Z"/><path class="cls-24" d="M100.41,30.28A6.11,6.11,0,0,0,105.28,38c3.48.79,7.26-.72,8.18-4.77.78-3.47-2.54-4.77-5.82-4.59a1,1,0,0,1-.82-.19C105,26.74,101.33,26.22,100.41,30.28Z"/><path class="cls-23" d="M111.6,31.93a7.38,7.38,0,0,1-9.78,3.33s4.93,3.28,7.61,1.31A4.91,4.91,0,0,0,111.6,31.93Z"/><path class="cls-25" d="M101.29,33.79s-1-3.06.71-4.51c1.94-1.66,3.64.43,3.64.43S101.33,28.15,101.29,33.79Z"/><path class="cls-28" d="M107.71,28.34A9.54,9.54,0,0,0,111,29.48a4.36,4.36,0,0,1-4-.8Z"/><path class="cls-28" d="M107.71,28.34a9.49,9.49,0,0,1-3.5-.41,4.35,4.35,0,0,0,3.92,1Z"/><path class="cls-28" d="M108.13,28.92s1.66-.27,2-1.14a3.07,3.07,0,0,1-2.44.56C106.62,27.92,108.13,28.92,108.13,28.92Z"/><path class="cls-28" d="M107.07,28.68s-1.4-.66-.79-1.78a3.49,3.49,0,0,0,1.43,1.44Z"/><path class="cls-28" d="M107.93,28.77s1,2.08,1.55,2a3.06,3.06,0,0,1-2.28-2Z"/><path class="cls-28" d="M107.93,28.77a5.19,5.19,0,0,0-1.13,1.76,2.22,2.22,0,0,1,.57-2.12Z"/><path class="cls-28" d="M107.93,28.77s.23-1.38.63-1.71c0,0-1.1.71-1.19,1.35Z"/><path class="cls-31" d="M214.23,77.46l-.66-5.89a4.22,4.22,0,0,0-3.66-3.71l-9.21-2.14v-4l-2.07,1.32L198.25,61a24.92,24.92,0,0,0,5.48-15.27c0-.19,0-.39,0-.58a14.46,14.46,0,0,0-2.17-7.51h.14V30.33c3.44-.71,5.37-2.06,5.37-5.54,0-4-3.42-6.95-7.63-6.95a8.32,8.32,0,0,0-1.82.21,7.56,7.56,0,0,0-7-5.26v0h-.38A7.59,7.59,0,0,0,183,17.92a7.88,7.88,0,0,0-1.09-.08h0a8.56,8.56,0,0,0-3,.52,7.56,7.56,0,0,0-1.88,1,8.34,8.34,0,0,0-1,.92,6.57,6.57,0,0,0-1.74,4.5,5.5,5.5,0,0,0,.79,3.1c.87,1.3,2.43,2,4.59,2.44v7.26h.23a14.3,14.3,0,0,0-2.14,6.87c0,.4,0,.8,0,1.22,0,5.72,2.46,12.18,6.15,16l-.28,1.56-2.35-1.5v3.89l-9.49,2.21A4.22,4.22,0,0,0,168,71.57l-1.57,14.08h24.29V74.23h0V85.65h24.41ZM179.32,44l-.28.09Zm8.24-3.38h0Zm-3.36,1.6-.07,0Zm-1.71.68-.08,0Zm-1.61.59-.11,0Z"/><path class="cls-37" d="M189.2,72.38l9.18-7.77.7.26a5.32,5.32,0,0,1-2-3.07L196,55.69H182.82l-1.09,6.11a5.27,5.27,0,0,1-1.7,2.81h0Z"/><path class="cls-3" d="M179.8,63.57,170,65.86a4.22,4.22,0,0,0-3.67,3.71l-1.57,14.08H189v-15Z"/><path class="cls-38" d="M213.45,83.65H189v-15l5.13-2.81,4.21-2.3,9.83,2.28a4.22,4.22,0,0,1,3.66,3.71l.66,5.89Z"/><path class="cls-39" d="M186.54,74.27A1.56,1.56,0,1,1,185,72.71,1.56,1.56,0,0,1,186.54,74.27Z"/><path class="cls-39" d="M186.54,79.66A1.56,1.56,0,1,1,185,78.1,1.56,1.56,0,0,1,186.54,79.66Z"/><path class="cls-8" d="M194.74,74.27a1.56,1.56,0,1,1-1.56-1.56A1.56,1.56,0,0,1,194.74,74.27Z"/><path class="cls-8" d="M194.74,79.66a1.56,1.56,0,1,1-1.56-1.56A1.56,1.56,0,0,1,194.74,79.66Z"/><path class="cls-40" d="M176,42.46c0,.4,0,.8,0,1.22,0,8.83,5.86,19.43,13.08,19.43h0V36.63A44.76,44.76,0,0,1,176,42.46Z"/><path class="cls-41" d="M202,43.68c0-.19,0-.39,0-.58-4.87-1.75-8.14-5.54-10.2-8.89a20,20,0,0,1-2.88,2.42V63.11C196.17,63.11,202,52.51,202,43.68Z"/><path class="cls-42" d="M202,43.1c-.19-6.21-3.35-10.37-7.81-12.13a13.7,13.7,0,0,1-2.39,3.24C193.88,37.56,197.15,41.35,202,43.1Z"/><path class="cls-43" d="M189.79,30,189,30c-6.88,0-12.52,4.41-13,12.46,4.91-1.41,11.8-4,15.93-8.25A13.65,13.65,0,0,0,194.3,31,14.16,14.16,0,0,0,189.79,30Z"/><path class="cls-38" d="M205.36,22.79c0-4-3.42-6.95-7.63-6.95a8.32,8.32,0,0,0-1.82.21,7.75,7.75,0,0,0-14.66-.13,7.88,7.88,0,0,0-1.09-.08c-4.22,0-7.64,2.94-7.64,7,0,3.48,1.93,4.83,5.38,5.54v7.26H200V28.33C203.43,27.62,205.36,26.27,205.36,22.79Z"/><path class="cls-3" d="M188.94,35.59V10.77h-.38a7.59,7.59,0,0,0-7.31,5.16,7.88,7.88,0,0,0-1.09-.08c-4.22,0-7.64,2.94-7.64,7,0,3.48,1.93,4.83,5.38,5.54v7.26Z"/><rect class="cls-44" x="177.9" y="32.73" width="22.09" height="2.86"/><rect class="cls-45" x="177.9" y="32.73" width="11.05" height="2.86"/><polygon class="cls-38" points="199 64.55 190.91 69.73 190.91 64.94 199 59.76 199 64.55"/><polygon class="cls-3" points="179.47 64.55 187.56 69.73 187.56 64.94 179.47 59.76 179.47 64.55"/><path class="cls-31" d="M224.41,115.28c-.41-1.15-.52-4.68-.54-9h.48a5.68,5.68,0,0,0,0-.59v-2.22a.78.78,0,0,0-.72-.83h-3.73a.78.78,0,0,0-.72.83v2.22c0,.08,0,.52,0,.59h.49c0,4.35-.14,7.88-.54,9a4.79,4.79,0,0,1-1,1.45c-.8-1.88-4.55-4.16-5.18-5.94-.41-1.14-.52-4.67-.54-9h.48a5.85,5.85,0,0,0,0-.59V99a.79.79,0,0,0-.72-.83h-3.74a.78.78,0,0,0-.72.83v2.22c0,.08,0,.51,0,.59h.49c0,4.35-.14,7.88-.54,9-.71,2-5.34,4.62-5.34,6.6v22a3.1,3.1,0,0,0,.14,1h11.27v3.47a3.1,3.1,0,0,0,.14,1H229.6a3.07,3.07,0,0,0,.15-1v-22C229.75,119.89,225.12,117.27,224.41,115.28Z"/><path class="cls-8" d="M216.64,128.52v8.91a3.07,3.07,0,0,1-.15,1h-7.8v-9.92Z"/><path class="cls-39" d="M208.69,138.44h-7.81a3.1,3.1,0,0,1-.14-1v-8.91h7.95Z"/><path class="cls-8" d="M208.69,99.77h2.07c0,4.35.13,7.88.54,9,.71,2,5.34,4.62,5.34,6.6v3.78h-7.95Z"/><path class="cls-39" d="M206.08,108.79c.4-1.14.51-4.67.54-9h2.07v19.4h-7.95v-3.78C200.74,113.41,205.37,110.79,206.08,108.79Z"/><rect class="cls-46" x="208.69" y="119.17" width="7.95" height="9.35"/><rect class="cls-3" x="200.74" y="119.17" width="7.95" height="9.35"/><path class="cls-46" d="M210.55,96.13h-1.86v3.64h2.55a5.85,5.85,0,0,0,0-.59V97A.79.79,0,0,0,210.55,96.13Z"/><path class="cls-3" d="M206.82,96.13a.78.78,0,0,0-.72.83v2.22c0,.08,0,.51,0,.59h2.56V96.13Z"/><path class="cls-47" d="M228.05,133v8.9a3.07,3.07,0,0,1-.15,1h-7.8V133Z"/><path class="cls-48" d="M220.1,142.92h-7.81a3.1,3.1,0,0,1-.14-1V133h7.95Z"/><path class="cls-47" d="M220.1,104.25h2.07c0,4.35.13,7.88.54,9,.71,2,5.34,4.61,5.34,6.6v3.77h-8Z"/><path class="cls-48" d="M217.49,113.28c.4-1.15.51-4.68.54-9h2.07v19.4h-7.95v-3.77C212.15,117.89,216.78,115.27,217.49,113.28Z"/><rect class="cls-46" x="220.1" y="123.65" width="7.95" height="9.35"/><rect class="cls-3" x="212.15" y="123.65" width="7.95" height="9.35"/><path class="cls-46" d="M222,100.61H220.1v3.64h2.55a5.68,5.68,0,0,0,0-.59v-2.22A.78.78,0,0,0,222,100.61Z"/><path class="cls-3" d="M218.23,100.61a.78.78,0,0,0-.72.83v2.22c0,.08,0,.52,0,.59h2.56v-3.64Z"/><g class="cls-17"><path class="cls-18" d="M197.93,115.2s0,0,0,0c0-.87-4.37-1.59-9.76-1.59s-9.76.72-9.76,1.59c0,0,0,0,0,0h0l.31,4c-.22,0-5.81,1.24-5.41,5.28.37,3.73,5.53,4.63,6.33,6.48l.36,4.66c.62.56,2.42,1.06,7.79,1.09h.49c5.83,0,7.53-.6,8.08-1.1L198,115.19Zm-22.66,9.09c-.21-2.15,2.09-3.07,3.59-3.44l.58,7.48C177.79,127.63,175.47,126.31,175.27,124.29Z"/><path class="cls-18" d="M188.32,113.3h.1s-2.44-1.29.8-5.11c1.92-2.27-1.82-4.24-1.61-6.74-.21,2.5,2.42,4.41.56,6.74A3.56,3.56,0,0,0,188.32,113.3Z"/><path class="cls-18" d="M186.08,111.71h.06s-1.16-.84.67-3.74c1.08-1.73-1-3-.91-4.93-.12,1.9,1.28,3.16.23,4.93A3.23,3.23,0,0,0,186.08,111.71Z"/><path class="cls-18" d="M190.46,111.71h.06s-1-.84.85-3.74c1.08-1.73-1.21-3-1.09-4.93-.12,1.9,1.46,3.16.42,4.93A3.44,3.44,0,0,0,190.46,111.71Z"/></g><path class="cls-49" d="M186.59,114c7.66,0,9.67-.78,9.67-.78l-1.59,20.42c-.55.5-2.25,1.1-8.08,1.1h-.49V114Z"/><path class="cls-50" d="M176.72,113.19s2,.74,9.38.77V134.7c-5.37,0-7.17-.53-7.79-1.09Z"/><path class="cls-49" d="M177.06,117.19s-5.85,1.15-5.44,5.28,6.73,4.79,6.43,7.12a18.75,18.75,0,0,0,1.36-2.68s-5.53-1.45-5.84-4.62,4.84-3.67,4.84-3.67Z"/><path class="cls-51" d="M176.72,113.15c0,.88,4.37,1.6,9.76,1.6s9.76-.72,9.76-1.6-4.37-1.59-9.76-1.59S176.72,112.28,176.72,113.15Z"/><path class="cls-3" d="M186.48,114c4.48,0,6.81-.7,7.11-1-.3-.31-2.63-.73-7.11-.73s-6.81.42-7.1.73C179.67,113.31,182,114,186.48,114Z"/><path class="cls-3" d="M186.47,106.19c1.86-2.33-.77-4.24-.56-6.74-.21,2.5,3.53,4.47,1.61,6.74-3.24,3.82-.8,5.11-.8,5.11h-.1A3.56,3.56,0,0,1,186.47,106.19Z"/><path class="cls-3" d="M184.43,106c1-1.77-.35-3-.23-4.93-.12,1.9,2,3.2.91,4.93-1.83,2.9-.67,3.74-.67,3.74h-.06A3.23,3.23,0,0,1,184.43,106Z"/><path class="cls-3" d="M189,106c1-1.77-.54-3-.42-4.93-.12,1.9,2.17,3.2,1.09,4.93-1.82,2.9-.85,3.74-.85,3.74h-.06A3.44,3.44,0,0,1,189,106Z"/><path class="cls-31" d="M215.08,151.68v-2.63s-.51-17.52-18.66-18.3V130a2.63,2.63,0,1,0-2.49,0v.75c-18.15.77-18.67,18.3-18.67,18.3v2.63h-5.13l4.06,3.31.51.42V157h40.94v-1.58l.51-.42,4.07-3.31Z"/><rect class="cls-39" x="192.23" y="127.01" width="2.49" height="3.32"/><path class="cls-39" d="M196.09,125.7a2.62,2.62,0,1,1-2.62-2.61A2.62,2.62,0,0,1,196.09,125.7Z"/><path class="cls-52" d="M193.47,128.71c-19.38,0-19.91,18.34-19.91,18.34h39.82S212.86,128.71,193.47,128.71Z"/><rect class="cls-8" x="173.56" y="147.05" width="39.82" height="2.75"/><path class="cls-3" d="M188.87,131.34s-10.26,1.71-12.49,15.71h2.49S179.39,135.53,188.87,131.34Z"/><polygon class="cls-3" points="218.52 149.68 168.43 149.68 172.49 152.99 214.45 152.99 218.52 149.68"/><polygon class="cls-53" points="172.49 152.99 173 153.41 173 154.99 213.94 154.99 213.94 153.41 214.45 152.99 172.49 152.99"/><path class="cls-31" d="M44.57,103.71a20.85,20.85,0,1,0,20.84,20.85A20.85,20.85,0,0,0,44.57,103.71Z"/><path class="cls-3" d="M63.71,122.56a20.85,20.85,0,1,1-20.84-20.85A20.84,20.84,0,0,1,63.71,122.56Z"/><path class="cls-54" d="M62,122.56A19.17,19.17,0,1,1,42.87,103.4,19.16,19.16,0,0,1,62,122.56Z"/><circle class="cls-3" cx="42.87" cy="122.56" r="17.35"/><path class="cls-55" d="M52.49,122.56a9.63,9.63,0,1,1-9.62-9.63A9.63,9.63,0,0,1,52.49,122.56Z"/><path class="cls-56" d="M42.72,108.91s0-2.62-1.81-1.86-.07,1.64-1.11,2.09-.87-1.64-2.18.24.1,2-.2,3.39-2.37-1.66-3.5.22-2.58,4,.1,4.83,2.91.9,1.94,1.61-1.43,2.13-.33,2.5,2.25-.92,2.32,1-.85,2.32,1.2,2.72,1.37-.67,2.75-1.15A4.85,4.85,0,0,0,45.39,120c0-2.81.54-7,.54-7Z"/><path class="cls-57" d="M43.65,122.88A4,4,0,0,0,44.86,120c0-2.47.41-5.94.52-6.86l-3.19-4v-.18c0-.36-.1-1.17-.44-1.4a.69.69,0,0,0-.64,0,1.54,1.54,0,0,0-.5.29c-.08.08-.09.11,0,.4a1.08,1.08,0,0,1-.2,1.14,1.26,1.26,0,0,1-.39.26,1.18,1.18,0,0,1-1.45-.41l-.07-.06-.06,0a3.15,3.15,0,0,0-.38.47c-.63.9-.5,1.19-.32,1.64a2.32,2.32,0,0,1,.2,1.56,1.06,1.06,0,0,1-.28.56c-.49.48-1.15.13-1.68-.15-.75-.4-1.14-.53-1.42-.25a1,1,0,0,0-.17.22l-.18.29c-.64,1.07-1.38,2.28-1.11,3a1.52,1.52,0,0,0,1.08.77l.13,0c2,.63,2.56.81,2.69,1.36a.82.82,0,0,1-.29.8c-.1.09-.23.2-.43.35a1.3,1.3,0,0,0-.22.19,1.39,1.39,0,0,0-.52,1.13c0,.08.07.18.27.25a1.73,1.73,0,0,0,.87,0,1.5,1.5,0,0,1,1.3.15,1.73,1.73,0,0,1,.51,1.41,7.17,7.17,0,0,1-.09,1.45,2.16,2.16,0,0,0,0,.5,2.89,2.89,0,0,0,.92.27c.87.17,1,0,1.1-.05s.11-.13.16-.19a3,3,0,0,1,.3-.34,2.44,2.44,0,0,1,.91-.55A5.17,5.17,0,0,0,43.65,122.88Z"/><path class="cls-58" d="M40,109.63a1.26,1.26,0,0,0,.39-.26.7.7,0,0,0,.15-.2l4.7,5.12,0,.24-5.36-4.86Z"/><path class="cls-58" d="M37.93,112.88a2.12,2.12,0,0,0,0-.9L45,116.75a1.79,1.79,0,0,1,0,.23l-7.18-3.78A1,1,0,0,0,37.93,112.88Z"/><path class="cls-58" d="M34.3,117.35l-.13,0a1.52,1.52,0,0,1-1.08-.77,2.48,2.48,0,0,1,.45-1.83l11.35,4.06c0,.12,0,.24,0,.36l-8.15-.85A9.36,9.36,0,0,0,34.3,117.35Z"/><path class="cls-58" d="M38.48,123c0-.14,0-.25,0-.37l6.21-1.33c0,.1-.07.21-.11.31l-6.08,2.09A5.31,5.31,0,0,0,38.48,123Z"/><path class="cls-58" d="M35.8,121.43c-.2-.07-.25-.17-.27-.25a1.26,1.26,0,0,1,.36-.94l9-.24a.71.71,0,0,0,0,.14l-9,1.31Z"/><path class="cls-56" d="M38,112s-.85-1.56-.37-1.93,7.5,6,7.5,6l-.06.65Z"/><polygon class="cls-56" points="44.96 117.56 34.55 113.04 34.2 113.55 44.93 118.07 44.96 117.56"/><polygon class="cls-56" points="44.2 122.23 38.34 124.91 38.39 124.41 44.2 122.23"/><path class="cls-56" d="M38.81,108.82s-2.44-2.43,0-3.42,1.56,1.48,3,.94-.7-2.33,2.26-1.78,1.74,2,3.31,3,.7-3.73,3.48-3,6.1,1.38,4.36,4.62-1.92,3.53-.35,3.3,3.31.68,2.61,2.06-3,1.2-1.22,3.11,2.93,1.4,1.38,3.66-1.9.63-3.64,1.45a6.39,6.39,0,0,1-7.49-1.1c-2.61-2.61-7-6.1-7-6.1Z"/><path class="cls-57" d="M50.78,122.8A5.28,5.28,0,0,1,47,121.17c-2.3-2.3-5.85-5.21-6.79-6l-.7-6.7-.17-.17c-.33-.33-1-1.19-.87-1.72,0-.22.26-.41.64-.56a2.17,2.17,0,0,1,.72-.19c.16,0,.19,0,.39.37a1.41,1.41,0,0,0,1.23.89A1.6,1.6,0,0,0,42,107a1.55,1.55,0,0,0,1-1.71v-.12h.1a4.7,4.7,0,0,1,.79.1c1.42.26,1.58.65,1.81,1.25A3.13,3.13,0,0,0,47,108.15a1.45,1.45,0,0,0,.78.26c.9,0,1.2-.94,1.44-1.69.34-1.06.58-1.54,1.1-1.54a1.35,1.35,0,0,1,.37.06l.43.11c1.59.4,3.4.87,3.8,1.78a2,2,0,0,1-.31,1.72l-.09.16c-1.31,2.45-1.67,3.1-1.28,3.74a1.09,1.09,0,0,0,1,.49,4.83,4.83,0,0,0,.72-.07,2.56,2.56,0,0,1,.39,0,1.87,1.87,0,0,1,1.52.59.45.45,0,0,1,0,.49A2.25,2.25,0,0,1,56,115a2,2,0,0,0-1.09,1.34,2.34,2.34,0,0,0,.82,1.79,9.44,9.44,0,0,0,1.42,1.27,2.78,2.78,0,0,1,.5.43s0,.27-.6,1.1-1,1-1.09,1a1.84,1.84,0,0,1-.33,0,5.3,5.3,0,0,0-.59,0,3.08,3.08,0,0,0-1.36.32A7,7,0,0,1,50.78,122.8Z"/><path class="cls-58" d="M42,107a1.6,1.6,0,0,1-.61.13,1.07,1.07,0,0,1-.32-.05l.29,9.13.24.2.57-9.49Z"/><path class="cls-58" d="M47,108.15a2.83,2.83,0,0,1-.85-.84l-2.26,11,.24.2,3.26-10.16A1.4,1.4,0,0,1,47,108.15Z"/><path class="cls-58" d="M54.48,109l.09-.16a2,2,0,0,0,.31-1.72,3.37,3.37,0,0,0-2.11-1.31l-6.94,14.26.35.32,6.88-8.29A11.85,11.85,0,0,1,54.48,109Z"/><path class="cls-58" d="M55.71,118.12a4.73,4.73,0,0,1-.31-.38l-7.06,4.46.39.19,7.64-3.62A8,8,0,0,1,55.71,118.12Z"/><path class="cls-58" d="M56.82,114.22a.45.45,0,0,0,0-.49,1.66,1.66,0,0,0-1.19-.56l-8.65,8,.14.13,9.62-7A.47.47,0,0,0,56.82,114.22Z"/><path class="cls-56" d="M46.11,107.31s-.63-2.25-1.42-2.16-1.48,12.59-1.48,12.59l.64.56Z"/><polygon class="cls-56" points="44.66 119.01 50.28 105.18 51.08 105.35 45.15 119.45 44.66 119.01"/><polygon class="cls-56" points="49.67 122.69 57.63 119.82 57.13 119.39 49.67 122.69"/><path class="cls-56" d="M31.84,117.56s-1.33-2.66-2.8-.93.78,1.68,0,2.68-1.72-1.21-2.08,1.37,1.14,2,1.56,3.52-3.24-.44-3.41,2-.54,5.37,2.59,4.83,3.41-.61,2.8.62-.35,2.89,1,2.69,1.79-2.09,2.88-.14.34,2.77,2.62,2.12,1-1.38,2.18-2.58a5.5,5.5,0,0,0,1.14-6.43c-1.42-2.85-3.09-7.37-3.09-7.37Z"/><path class="cls-57" d="M40,131.18a4.48,4.48,0,0,0-.3-3.57c-1.25-2.51-2.66-6.22-3-7.19l-5.3-2.4-.09-.19c-.18-.36-.71-1.12-1.17-1.18-.19,0-.4.1-.63.37a1.69,1.69,0,0,0-.35.54c0,.13,0,.16.19.41a1.23,1.23,0,0,1,.39,1.26,1.29,1.29,0,0,1-.27.46,1.33,1.33,0,0,1-1.67.34l-.1,0a.46.46,0,0,0,0,.09,4.22,4.22,0,0,0-.14.67c-.17,1.23.11,1.46.53,1.82a2.64,2.64,0,0,1,1,1.47,1.22,1.22,0,0,1,0,.71c-.25.74-1.09.73-1.77.72-1,0-1.42,0-1.56.48a1.3,1.3,0,0,0-.06.32l0,.37c-.1,1.42-.21,3,.43,3.6a1.73,1.73,0,0,0,1.49.22l.15,0c2.36-.41,3-.52,3.42,0a.94.94,0,0,1,.12,1A6.26,6.26,0,0,1,31,132a1.14,1.14,0,0,0-.13.3,1.61,1.61,0,0,0,.06,1.41c.06.08.16.16.41.12a2,2,0,0,0,.86-.48,1.68,1.68,0,0,1,1.39-.52c.47.09.85.45,1.24,1.15a8.47,8.47,0,0,1,.66,1.52,3,3,0,0,0,.21.52,2.69,2.69,0,0,0,1.06-.2c1-.27,1.05-.51,1.09-.62a2.29,2.29,0,0,0,.07-.28,3.48,3.48,0,0,1,.12-.49,2.66,2.66,0,0,1,.63-1A6,6,0,0,0,40,131.18Z"/><path class="cls-58" d="M29.46,119.69a1.29,1.29,0,0,0,.27-.46,1,1,0,0,0,.05-.28l7.39,2.73a2.6,2.6,0,0,0,.1.25l-7.93-2.12Z"/><path class="cls-58" d="M29.06,124.05a2.69,2.69,0,0,0-.45-.93l9.61,1.16.1.25-9.21-.1A1.28,1.28,0,0,0,29.06,124.05Z"/><path class="cls-58" d="M27.71,130.44l-.15,0a1.73,1.73,0,0,1-1.49-.22,2.86,2.86,0,0,1-.5-2.08l13.56-1.79c.06.13.12.25.17.38l-8.66,3.37A9.94,9.94,0,0,0,27.71,130.44Z"/><path class="cls-58" d="M34.83,133.93c-.07-.13-.15-.24-.22-.35L40.18,129c0,.12,0,.24,0,.37l-5,5.26A5.84,5.84,0,0,0,34.83,133.93Z"/><path class="cls-58" d="M31.34,133.78c-.25,0-.35,0-.41-.12a1.47,1.47,0,0,1-.13-1.13l8.93-4.88a1,1,0,0,1,.07.15l-8.38,6Z"/><path class="cls-56" d="M28.61,123.12s-1.67-1.13-1.38-1.74,10.7,2.22,10.7,2.22l.29.68Z"/><polygon class="cls-56" points="38.58 125.13 25.73 125.96 25.64 126.65 38.81 125.66 38.58 125.13"/><polygon class="cls-56" points="40.22 130.24 35.7 135.97 35.49 135.45 40.22 130.24"/><path class="cls-56" d="M44.31,115.94s-.26-2.6-2-1.64.11,1.63-.87,2.2-1-1.53-2.14.48.33,2,.18,3.39S36.94,119,36,121s-2.12,4.25.63,4.78,3,.57,2.12,1.38-1.19,2.28-.05,2.53,2.13-1.17,2.43.78-.59,2.4,1.49,2.57,1.29-.82,2.61-1.46a4.83,4.83,0,0,0,2.94-4.94c-.28-2.8-.25-7-.25-7Z"/><path class="cls-57" d="M46.81,129.72a4,4,0,0,0,.87-3c-.26-2.46-.26-6-.26-6.87l-3.61-3.62,0-.19c0-.36-.24-1.15-.6-1.34a.7.7,0,0,0-.64.11,1.49,1.49,0,0,0-.46.34c-.07.09-.08.11,0,.39a1.09,1.09,0,0,1-.06,1.16,1.61,1.61,0,0,1-.37.3,1.16,1.16,0,0,1-1.48-.24l-.08-.06-.05.06a4.29,4.29,0,0,0-.32.51c-.53,1-.37,1.25-.13,1.67a2.38,2.38,0,0,1,.37,1.53,1,1,0,0,1-.22.58c-.43.54-1.13.26-1.69,0-.79-.32-1.19-.4-1.43-.09a.7.7,0,0,0-.15.24l-.14.3c-.52,1.14-1.12,2.43-.77,3.1a1.51,1.51,0,0,0,1.16.64l.13,0c2.08.4,2.64.51,2.83,1a.82.82,0,0,1-.2.83,3.51,3.51,0,0,1-.39.39,2.09,2.09,0,0,0-.2.22,1.39,1.39,0,0,0-.38,1.18c0,.08.08.18.3.22a1.74,1.74,0,0,0,.85-.12A1.53,1.53,0,0,1,41,129a1.76,1.76,0,0,1,.66,1.34,7.94,7.94,0,0,1,.07,1.45,1.87,1.87,0,0,0,0,.5,2.48,2.48,0,0,0,.94.17c.88.07,1-.1,1.09-.18a1.91,1.91,0,0,0,.14-.21,3.2,3.2,0,0,1,.26-.37,2.34,2.34,0,0,1,.83-.64A5.29,5.29,0,0,0,46.81,129.72Z"/><path class="cls-58" d="M41.69,117a1.61,1.61,0,0,0,.37-.3,1.13,1.13,0,0,0,.12-.21L47.43,121v.24L41.56,117A.75.75,0,0,0,41.69,117Z"/><path class="cls-58" d="M40,120.43a2.32,2.32,0,0,0-.08-.91l7.56,4a1.93,1.93,0,0,0,0,.24l-7.56-2.95A1.6,1.6,0,0,0,40,120.43Z"/><path class="cls-58" d="M36.89,125.28l-.13,0a1.51,1.51,0,0,1-1.16-.64,2.55,2.55,0,0,1,.24-1.88l11.74,2.76c0,.12,0,.25,0,.37l-8.19.07A8.81,8.81,0,0,0,36.89,125.28Z"/><path class="cls-58" d="M41.68,130.38a3.41,3.41,0,0,0-.08-.37l6-2a3,3,0,0,1-.07.32l-5.8,2.77A6.62,6.62,0,0,0,41.68,130.38Z"/><path class="cls-58" d="M38.85,129.16c-.22,0-.28-.14-.3-.22a1.25,1.25,0,0,1,.24-1l8.89-1.24a.71.71,0,0,0,0,.14l-8.77,2.3Z"/><path class="cls-56" d="M39.92,119.52s-1-1.45-.6-1.87,8.14,5.18,8.14,5.18l0,.64Z"/><polygon class="cls-56" points="47.51 124.29 36.66 120.97 36.37 121.51 47.54 124.8 47.51 124.29"/><polygon class="cls-56" points="47.27 129.01 41.76 132.33 41.75 131.83 47.27 129.01"/><path class="cls-59" d="M36.8,117.28a4.43,4.43,0,0,0-5,3.75l8.75,1.25A4.43,4.43,0,0,0,36.8,117.28Z"/><path class="cls-60" d="M33,120.3a2.2,2.2,0,0,1,.7-1.37c1.65-1.45,4.06-1.26,5.65.81a2.79,2.79,0,0,1,.46,1.65h0c0,.38-.67.43-1,0a3.56,3.56,0,0,0-5.08-.81c-.4.26-.81.05-.75-.33Z"/><path class="cls-54" d="M36.57,119.58c.7-.71.13-.93.13-.93S36.09,118.7,36.57,119.58Z"/><path class="cls-54" d="M35.86,119.46c.46-.9-.15-.93-.15-.93S35.14,118.76,35.86,119.46Z"/><path class="cls-54" d="M34.93,119.58c.65-.76.07-.93.07-.93S34.39,118.74,34.93,119.58Z"/><path class="cls-54" d="M34.35,119.82c.2-.81-.3-.73-.3-.73S33.63,119.39,34.35,119.82Z"/><path class="cls-54" d="M33.54,120.41c.4-.57,0-.65,0-.65S33.11,119.87,33.54,120.41Z"/><path class="cls-54" d="M37.28,119.66c-.19-1,.4-.85.4-.85S38.17,119.19,37.28,119.66Z"/><path class="cls-54" d="M38.11,120.21c-.41-.92.2-.92.2-.92S38.87,119.54,38.11,120.21Z"/><path class="cls-54" d="M38.44,120.57c0-.84.49-.61.49-.61S39.25,120.36,38.44,120.57Z"/><path class="cls-54" d="M39.05,121.2c-.23-.66.2-.62.2-.62S39.62,120.79,39.05,121.2Z"/><path class="cls-59" d="M40.35,135.24a5,5,0,0,0,6.74-2l-8.73-4.74A5,5,0,0,0,40.35,135.24Z"/><path class="cls-60" d="M45.56,133.57a2.52,2.52,0,0,1-1.28,1.16c-2.3.88-4.76-.27-5.63-3.06a3.16,3.16,0,0,1,.16-1.92h0c.21-.39.88-.2,1,.32a4,4,0,0,0,5,2.85c.52-.12.87.26.66.65Z"/><path class="cls-54" d="M41.5,132.92c-1,.47-.5.93-.5.93S41.66,134,41.5,132.92Z"/><path class="cls-54" d="M42.19,133.32c-.83.76-.2,1-.2,1S42.68,134.34,42.19,133.32Z"/><path class="cls-54" d="M43.23,133.55c-1,.55-.44,1-.44,1S43.46,134.66,43.23,133.55Z"/><path class="cls-54" d="M43.93,133.53c-.53.78,0,.89,0,.89S44.52,134.27,43.93,133.53Z"/><path class="cls-54" d="M45,133.22c-.64.45-.24.7-.24.7S45.25,134,45,133.22Z"/><path class="cls-54" d="M40.78,132.56c-.18,1.11-.76.73-.76.73S39.66,132.7,40.78,132.56Z"/><path class="cls-54" d="M40.12,131.65c.08,1.13-.57.89-.57.89S39.06,132.05,40.12,131.65Z"/><path class="cls-54" d="M39.91,131.14c-.35.87-.75.45-.75.45S39,131.05,39.91,131.14Z"/><path class="cls-54" d="M39.52,130.24c0,.78-.46.58-.46.58S38.76,130.44,39.52,130.24Z"/><path class="cls-59" d="M48.27,129.08a5,5,0,0,0,6.74-2l-8.73-4.74A5,5,0,0,0,48.27,129.08Z"/><path class="cls-60" d="M53.48,127.4a2.43,2.43,0,0,1-1.28,1.16c-2.3.88-4.76-.26-5.63-3.06a3.17,3.17,0,0,1,.16-1.92h0c.21-.38.88-.19,1.05.33a4,4,0,0,0,5,2.84c.52-.12.87.27.66.65Z"/><path class="cls-54" d="M49.42,126.75c-1,.48-.5.93-.5.93S49.58,127.87,49.42,126.75Z"/><path class="cls-54" d="M50.12,127.16c-.84.76-.21,1-.21,1S50.6,128.18,50.12,127.16Z"/><path class="cls-54" d="M51.15,127.39c-1,.54-.44,1-.44,1S51.38,128.49,51.15,127.39Z"/><path class="cls-54" d="M51.85,127.37c-.53.77,0,.88,0,.88S52.44,128.11,51.85,127.37Z"/><path class="cls-54" d="M52.93,127.06c-.64.44-.23.69-.23.69S53.17,127.8,52.93,127.06Z"/><path class="cls-54" d="M48.7,126.39c-.18,1.11-.76.73-.76.73S47.58,126.53,48.7,126.39Z"/><path class="cls-54" d="M48,125.49c.08,1.12-.57.89-.57.89S47,125.89,48,125.49Z"/><path class="cls-54" d="M47.83,125c-.35.87-.75.46-.75.46S46.9,124.88,47.83,125Z"/><path class="cls-54" d="M47.44,124.07c0,.79-.46.58-.46.58S46.68,124.28,47.44,124.07Z"/><path class="cls-59" d="M44.89,115.26a3.54,3.54,0,0,0,.66,4.95l4.29-5.61A3.52,3.52,0,0,0,44.89,115.26Z"/><path class="cls-60" d="M45.5,119.1a1.81,1.81,0,0,1-.68-1,3,3,0,0,1,2.77-3.62,2.33,2.33,0,0,1,1.33.32h0c.25.19,0,.64-.34.71A2.84,2.84,0,0,0,46,118.7c0,.38-.28.59-.53.4Z"/><path class="cls-54" d="M46.4,116.32c-.22-.77-.6-.46-.6-.46S45.6,116.31,46.4,116.32Z"/><path class="cls-54" d="M46,116.76c-.44-.67-.71-.25-.71-.25S45.27,117,46,116.76Z"/><path class="cls-54" d="M45.76,117.46c-.27-.75-.62-.41-.62-.41S45,117.51,45.76,117.46Z"/><path class="cls-54" d="M45.7,118c-.48-.46-.62-.08-.62-.08S45.12,118.29,45.7,118Z"/><path class="cls-54" d="M45.8,118.75c-.24-.5-.46-.24-.46-.24S45.25,118.84,45.8,118.75Z"/><path class="cls-54" d="M46.73,115.85c-.76-.25-.43-.61-.43-.61S46.75,115.05,46.73,115.85Z"/><path class="cls-54" d="M47.44,115.48c-.8-.06-.56-.49-.56-.49S47.28,114.7,47.44,115.48Z"/><path class="cls-54" d="M47.83,115.4c-.58-.35-.24-.58-.24-.58S48,114.75,47.83,115.4Z"/><path class="cls-54" d="M48.5,115.22c-.55-.1-.36-.38-.36-.38S48.44,114.66,48.5,115.22Z"/><path class="cls-61" d="M46,122s2.28.22,2-1S44.41,118.91,46,122Z"/><path class="cls-62" d="M45.62,117.06l-1.9,7.08a3.4,3.4,0,0,1,1,.11c1.58.39,1.45-1.08,1.32-1.87s-.22-2.1.56-2.19c1-.11.68,1.36.68,1.36s0-.89-.76-.61-.21,1.43.66,1.67S50.94,118.47,45.62,117.06Z"/><path class="cls-63" d="M46.18,121.8c-.5-.43-.16-1.17,0-1.35a.48.48,0,0,0-.12,0c-.79.09-.7,1.4-.57,2.19a2.19,2.19,0,0,1-.18,1.67C46.15,124.23,46.27,122.48,46.18,121.8Z"/><path class="cls-63" d="M45.62,117.06l-.11.39c3.86,1.26,2.69,4.25,1.68,5.16C48.08,122.76,50.89,118.45,45.62,117.06Z"/><path class="cls-61" d="M40,122s-2,.79-1.21,1.65S42.61,123.82,40,122Z"/><path class="cls-62" d="M42.42,125.84l-1.48-6.57a3.67,3.67,0,0,1-.84.33c-1.45.35-.72,1.5-.28,2.08s1.08,1.61.48,2-1.13-.82-1.13-.82.37.74.87.18-.44-1.26-1.25-1.08S37.49,127,42.42,125.84Z"/><path class="cls-63" d="M39.94,122.22c.59.14.62.88.6,1.09l.1,0c.6-.42,0-1.45-.48-2a2,2,0,0,1-.56-1.43C38.92,120.23,39.57,121.7,39.94,122.22Z"/><path class="cls-63" d="M42.42,125.84l-.08-.37c-3.68.63-4-2.31-3.57-3.48C38,122.25,37.54,127,42.42,125.84Z"/><path class="cls-59" d="M41,123.66a3.54,3.54,0,0,0,.66,5L45.94,123A3.54,3.54,0,0,0,41,123.66Z"/><path class="cls-60" d="M41.6,127.5a1.76,1.76,0,0,1-.68-1,3,3,0,0,1,2.77-3.62,2.25,2.25,0,0,1,1.33.32h0c.25.19,0,.64-.34.71a2.84,2.84,0,0,0-2.55,3.22c0,.38-.28.59-.53.39Z"/><path class="cls-54" d="M42.5,124.72c-.22-.77-.6-.45-.6-.45S41.7,124.71,42.5,124.72Z"/><path class="cls-54" d="M42.14,125.17c-.44-.67-.71-.26-.71-.26S41.37,125.4,42.14,125.17Z"/><path class="cls-54" d="M41.86,125.87c-.27-.75-.62-.42-.62-.42S41.06,125.91,41.86,125.87Z"/><path class="cls-54" d="M41.8,126.37c-.48-.46-.62-.08-.62-.08S41.22,126.7,41.8,126.37Z"/><path class="cls-54" d="M41.9,127.16c-.24-.5-.46-.24-.46-.24S41.35,127.25,41.9,127.16Z"/><path class="cls-54" d="M42.83,124.26c-.76-.25-.43-.62-.43-.62S42.85,123.46,42.83,124.26Z"/><path class="cls-54" d="M43.54,123.89c-.8-.07-.56-.5-.56-.5S43.38,123.11,43.54,123.89Z"/><path class="cls-54" d="M43.93,123.8c-.58-.34-.24-.57-.24-.57S44.09,123.16,43.93,123.8Z"/><path class="cls-54" d="M44.6,123.63c-.55-.11-.36-.39-.36-.39S44.54,123.07,44.6,123.63Z"/><path class="cls-64" d="M48.94,119.28a2.34,2.34,0,1,0,2.34,2.34A2.34,2.34,0,0,0,48.94,119.28Zm0,3.63a1.3,1.3,0,1,1,1.29-1.29A1.29,1.29,0,0,1,48.94,122.91Z"/><path class="cls-64" d="M37.24,126.16a2.3,2.3,0,1,0,2.29,2.29A2.29,2.29,0,0,0,37.24,126.16Zm0,3.56a1.27,1.27,0,1,1,1.27-1.27A1.27,1.27,0,0,1,37.24,129.72Z"/><path class="cls-64" d="M44.85,112.07a2.29,2.29,0,1,0,2.3,2.29A2.29,2.29,0,0,0,44.85,112.07Zm0,3.56a1.27,1.27,0,1,1,1.27-1.27A1.27,1.27,0,0,1,44.85,115.63Z"/><path class="cls-61" d="M37.66,122.51s-2-.53-2,.6S38.62,125.53,37.66,122.51Z"/><path class="cls-62" d="M37.26,127,40,120.89a3.86,3.86,0,0,1-.87-.24c-1.37-.59-1.48.77-1.47,1.5s-.11,1.94-.83,1.91c-.9,0-.42-1.34-.42-1.34s-.14.81.6.67.4-1.27-.36-1.61S32.63,125,37.26,127Z"/><path class="cls-63" d="M37.44,122.65c.39.47,0,1.08-.18,1.23l.12,0c.72,0,.83-1.17.83-1.9a2,2,0,0,1,.41-1.49C37.81,120.45,37.45,122,37.44,122.65Z"/><path class="cls-63" d="M37.26,127l.15-.35c-3.32-1.7-1.82-4.25-.77-4.92C35.85,121.51,32.67,125,37.26,127Z"/><path class="cls-61" d="M52.79,124.89s1.93-1.24,1-2S49.67,123.44,52.79,124.89Z"/><path class="cls-62" d="M49.46,121.24l2.9,6.73a3.83,3.83,0,0,1,.84-.53c1.48-.66.47-1.74-.12-2.28s-1.48-1.5-.92-2.06,1.37.65,1.37.65-.54-.72-1,0,.73,1.25,1.55.9S54.51,119,49.46,121.24Z"/><path class="cls-63" d="M52.84,124.61c-.66,0-.84-.82-.86-1l-.1.08c-.55.56.33,1.54.92,2.07.37.34.91.89.89,1.42C54.33,126.53,53.34,125.09,52.84,124.61Z"/><path class="cls-63" d="M49.46,121.24l.16.37c3.81-1.41,4.75,1.67,4.52,3C54.93,124.18,54.46,119.06,49.46,121.24Z"/><path class="cls-61" d="M50.45,131s1-1.55,0-1.77S47.72,131,50.45,131Z"/><path class="cls-62" d="M46.82,129.49l4.38,3.83a2.61,2.61,0,0,1,.42-.66c.83-1-.26-1.41-.87-1.59s-1.57-.58-1.36-1.17,1.21,0,1.21,0-.64-.33-.71.32,1,.65,1.42.12S49.69,126.19,46.82,129.49Z"/><path class="cls-63" d="M50.39,130.75c-.48.21-.88-.29-1-.45a.39.39,0,0,0,0,.09c-.21.59.75,1,1.36,1.17.38.11,1,.32,1.12.71C52.12,131.62,50.91,130.92,50.39,130.75Z"/><path class="cls-63" d="M46.82,129.49l.25.21c2.24-2.3,4-.42,4.25.62C51.74,129.73,49.66,126.23,46.82,129.49Z"/><path class="cls-61" d="M43.26,116.6s1.93-1.24,1-2S40.13,115.15,43.26,116.6Z"/><path class="cls-62" d="M39.93,113l2.9,6.73a3.84,3.84,0,0,1,.84-.52c1.48-.67.47-1.75-.13-2.28s-1.47-1.51-.91-2.07,1.37.65,1.37.65-.54-.72-1,0,.73,1.26,1.55.91S45,110.75,39.93,113Z"/><path class="cls-63" d="M43.31,116.32c-.66,0-.85-.81-.86-1l-.1.08c-.55.56.33,1.53.92,2.06.37.34.91.89.89,1.42C44.8,118.25,43.81,116.8,43.31,116.32Z"/><path class="cls-63" d="M39.93,113l.16.38c3.81-1.42,4.75,1.66,4.52,3C45.4,115.89,44.93,110.77,39.93,113Z"/><polygon class="cls-65" points="43.3 131.28 42.34 128.13 45.32 125.73 46.14 129.13 43.3 131.28"/><polygon class="cls-66" points="39.52 126.99 40.53 129.76 43.3 131.28 42.34 128.13 39.52 126.99"/><polygon class="cls-67" points="45.32 125.73 42.34 124.34 39.52 126.99 42.34 128.13 45.32 125.73"/><rect class="cls-66" x="48.6" y="117.74" width="3.97" height="2.77"/><rect class="cls-67" x="48.6" y="114.97" width="3.97" height="2.77"/><rect class="cls-66" x="30.99" y="125.62" width="3.97" height="2.77"/><rect class="cls-67" x="30.99" y="122.85" width="3.97" height="2.77"/><path class="cls-68" d="M43.61,120.4a2.2,2.2,0,1,1-2.2-2.19A2.2,2.2,0,0,1,43.61,120.4Z"/><path class="cls-69" d="M40.53,120s-.73.12-.44-.59.85-.62,1.32-.62,1.58.51.79,1A1.91,1.91,0,0,1,40.53,120Z"/><path class="cls-69" d="M42.12,120.79s.72-.14.45.58-.82.64-1.3.65-1.59-.46-.81-1A1.9,1.9,0,0,1,42.12,120.79Z"/><path class="cls-70" d="M42.36,120.4a1,1,0,1,1-1-1A1,1,0,0,1,42.36,120.4Z"/><path class="cls-68" d="M49.19,131.13a2.45,2.45,0,1,1-2.45-2.45A2.44,2.44,0,0,1,49.19,131.13Z"/><path class="cls-69" d="M45.77,130.72s-.82.14-.49-.65.93-.7,1.46-.7,1.76.57.88,1.16A2.07,2.07,0,0,1,45.77,130.72Z"/><path class="cls-69" d="M47.53,131.56s.81-.16.51.64-.92.72-1.45.73-1.77-.52-.91-1.14A2.12,2.12,0,0,1,47.53,131.56Z"/><path class="cls-70" d="M47.8,131.13a1.06,1.06,0,1,1-1.06-1.06A1.06,1.06,0,0,1,47.8,131.13Z"/><path class="cls-68" d="M34.46,122.8a2,2,0,1,1-2-2A2,2,0,0,1,34.46,122.8Z"/><path class="cls-69" d="M31.72,122.47s-.66.11-.4-.52.76-.56,1.18-.56,1.41.46.71.93A1.68,1.68,0,0,1,31.72,122.47Z"/><path class="cls-69" d="M33.13,123.15s.65-.13.41.51-.74.58-1.16.59-1.42-.42-.73-.91A1.66,1.66,0,0,1,33.13,123.15Z"/><path class="cls-70" d="M33.35,122.8a.85.85,0,1,1-.85-.85A.85.85,0,0,1,33.35,122.8Z"/><polygon class="cls-66" points="36.93 118.35 37.68 115.42 36.17 113.24 35.32 115.8 36.93 118.35"/><polygon class="cls-65" points="40.62 118.35 36.93 118.35 37.68 115.42 41.37 115.42 40.62 118.35"/><polygon class="cls-67" points="36.17 113.24 39.86 113.24 41.37 115.42 37.68 115.42 36.17 113.24"/><path class="cls-31" d="M46.45,153.83,21.87,118.48a1.83,1.83,0,0,0-3-.2A50.83,50.83,0,0,0,8,130.46a49.26,49.26,0,0,0-6.15,14.69,1.91,1.91,0,0,0,1.5,2.66l42.11,7.56C46.76,155.61,47.21,154.91,46.45,153.83Z"/><path class="cls-26" d="M43.76,153.37c1.3.24,1.75-.46,1-1.54L20.17,116.48a1.83,1.83,0,0,0-3-.2A50.83,50.83,0,0,0,6.3,128.46,49.26,49.26,0,0,0,.15,143.15a1.91,1.91,0,0,0,1.5,2.66Z"/><path class="cls-71" d="M43.93,152.52a1.11,1.11,0,0,1-.49,0L7.59,146.07a1.08,1.08,0,0,1-.81-.53,1.13,1.13,0,0,1,0-1l0,0v0a41.51,41.51,0,0,1,5.15-12.32,43.21,43.21,0,0,1,9.14-10.22l0,0,0,0,.23-.2a1,1,0,0,1,1.43.32l20.93,30.09A1,1,0,0,1,43.93,152.52Z"/><path class="cls-28" d="M18.83,129.79a2.14,2.14,0,0,1,.77-.91,2.09,2.09,0,0,1-.4-1.51,3,3,0,0,1,3-2.87l-.11,1.29h0c-.89-.07-1.55.14-1.63,1a1.6,1.6,0,0,0,.91,1.59l.19,0a1.88,1.88,0,0,0,.36.1v.07a10.08,10.08,0,0,0,2.55.57l-.28,1.09-2.38-.43a4.37,4.37,0,0,1-1.37-.32,1.18,1.18,0,0,0-.12,2.22h0l-.39.88A2.15,2.15,0,0,1,18.83,129.79Z"/><path class="cls-33" d="M37.57,150.48h0a1.71,1.71,0,1,1,3.36.67h0l1.36.27h0a3.1,3.1,0,1,0-6.08-1.21h0Z"/><path class="cls-72" d="M24.05,128.89s1.15-2.81-.48-2.92S19.55,129.68,24.05,128.89Z"/><path class="cls-73" d="M17.67,127.44l8.24,5.12a5,5,0,0,1,.52-1.2c1.11-1.84-.82-2.26-1.87-2.39s-2.74-.52-2.56-1.55c.24-1.28,2-.34,2-.34s-1.13-.36-1.07.72,1.74.82,2.37-.19S21.49,121.22,17.67,127.44Z"/><path class="cls-74" d="M23.89,128.55c-.74.46-1.54-.25-1.72-.49a.75.75,0,0,0-.05.16c-.18,1,1.51,1.42,2.56,1.55.66.09,1.67.28,2,.88C27,129.51,24.79,128.69,23.89,128.55Z"/><path class="cls-74" d="M17.67,127.44l.45.28c3.08-4.41,6.42-1.77,7.19-.14C25.84,126.5,21.45,121.29,17.67,127.44Z"/><path class="cls-72" d="M30.91,143.65s-2.54-1.17-2.7.33S31.45,147.82,30.91,143.65Z"/><path class="cls-73" d="M29.32,149.46l5-7.37a4.51,4.51,0,0,1-1.08-.52c-1.65-1.09-2.1.66-2.27,1.61s-.59,2.5-1.53,2.29c-1.16-.26-.23-1.84-.23-1.84s-.38,1,.62,1,.82-1.56-.08-2.18S23.76,145.69,29.32,149.46Z"/><path class="cls-74" d="M30.59,143.79c.39.7-.3,1.4-.52,1.56l.14.05c.94.21,1.37-1.34,1.53-2.29.11-.6.33-1.52.89-1.84C31.59,141,30.75,143,30.59,143.79Z"/><path class="cls-74" d="M29.32,149.46l.28-.41c-3.93-3-1.37-6,.15-6.6C28.78,141.92,23.82,145.73,29.32,149.46Z"/><path class="cls-75" d="M4,139.64s-2.53,2.32-1.66,4c1.21,2.27,4.11-.28,4.12-2.73a7.16,7.16,0,0,1,1.63-5.05,17.67,17.67,0,0,0,2.44-5.11c.48-1.56,3.49-4.87,4.22-5.62s6.66-5,5.07-6.33-2.94.21-4.11,1.51-4.25,4.42-5.68,6.15-4,3.92-4.14,6.25S3.37,137.88,4,139.64Z"/><path class="cls-33" d="M10.89,138.23a3.1,3.1,0,1,0,4.32.77A3.11,3.11,0,0,0,10.89,138.23Zm2.75,4a1.71,1.71,0,1,1,.43-2.38A1.72,1.72,0,0,1,13.64,142.18Z"/><path class="cls-33" d="M26.58,134.05a3.1,3.1,0,1,0,4.32.77A3.11,3.11,0,0,0,26.58,134.05ZM29.33,138a1.71,1.71,0,1,1,.43-2.38A1.71,1.71,0,0,1,29.33,138Z"/><path class="cls-28" d="M21.83,139.08a2.58,2.58,0,0,0-.68,1.21,2.38,2.38,0,0,0-1.8.19,3.46,3.46,0,0,0-1.91,4.45l1.37-.65h0c-.45-.93-.49-1.74.44-2.19a1.88,1.88,0,0,1,2.11.35.8.8,0,0,0,.13.19,4,4,0,0,1,.26.34l.06,0a11.07,11.07,0,0,1,1.67,2.55l1.07-.75-1.44-2.42A4.9,4.9,0,0,0,22.2,141a1.38,1.38,0,0,1,2.37-1h0l.81-.78A2.52,2.52,0,0,0,21.83,139.08Z"/><path class="cls-24" d="M18.65,141.33a6.57,6.57,0,0,0,5.81-7.26l-13.07,1.44A6.58,6.58,0,0,0,18.65,141.33Z"/><path class="cls-23" d="M23,135.57a3.28,3.28,0,0,1-.51,2.23c-1.84,2.7-5.38,3.32-8.44.93a4.17,4.17,0,0,1-1.28-2.21h0c-.06-.58.81-.88,1.39-.44a5.3,5.3,0,0,0,7.63-.71c.48-.53,1.15-.38,1.21.2Z"/><path class="cls-25" d="M18.13,137.94c-.75,1.29.16,1.39.16,1.39S19.15,139,18.13,137.94Z"/><path class="cls-25" d="M19.2,137.85c-.34,1.46.56,1.28.56,1.28S20.5,138.59,19.2,137.85Z"/><path class="cls-25" d="M20.49,137.32c-.66,1.34.25,1.38.25,1.38S21.58,138.34,20.49,137.32Z"/><path class="cls-25" d="M21.25,136.76c0,1.25.69.94.69.94S22.44,137.12,21.25,136.76Z"/><path class="cls-25" d="M22.18,135.61c-.36,1,.27.93.27.93S23,136.24,22.18,135.61Z"/><path class="cls-25" d="M17.08,138.09c.64,1.34-.28,1.37-.28,1.37S16,139.09,17.08,138.09Z"/><path class="cls-25" d="M15.67,137.61c.94,1.16.06,1.39.06,1.39S14.83,138.84,15.67,137.61Z"/><path class="cls-25" d="M15.06,137.2c.27,1.21-.48,1.06-.48,1.06S14,137.81,15.06,137.2Z"/><path class="cls-25" d="M14,136.52c.57.87-.06,1-.06,1S13.28,137.31,14,136.52Z"/><path class="cls-24" d="M31.76,146a5.85,5.85,0,0,0,7.84,2.66l-5.17-10.5A5.86,5.86,0,0,0,31.76,146Z"/><path class="cls-23" d="M37.91,148a2.89,2.89,0,0,1-2,.24c-2.81-.71-4.4-3.5-3.33-6.78A3.72,3.72,0,0,1,34,139.68h0c.46-.22,1,.41.79,1a4.72,4.72,0,0,0,2.91,6.17c.58.24.66.85.19,1.08Z"/><path class="cls-25" d="M34.45,144.57c-1.31-.24-1.12.55-1.12.55S33.84,145.75,34.45,144.57Z"/><path class="cls-25" d="M34.84,145.43c-1.32.17-.9.86-.9.86S34.62,146.74,34.84,145.43Z"/><path class="cls-25" d="M35.68,146.36c-1.32-.15-1.08.62-1.08.62S35.15,147.58,35.68,146.36Z"/><path class="cls-25" d="M36.37,146.82c-1,.38-.57.86-.57.86S36.43,147.93,36.37,146.82Z"/><path class="cls-25" d="M37.62,147.25c-.92,0-.7.51-.7.51S37.34,148.13,37.62,147.25Z"/><path class="cls-25" d="M34,143.73c-.93,1-1.23.19-1.23.19S32.83,143.11,34,143.73Z"/><path class="cls-25" d="M34,142.41c-.69,1.13-1.15.47-1.15.47S32.69,142.07,34,142.41Z"/><path class="cls-25" d="M34.13,141.77c-.93.6-1-.07-1-.07S33.29,141.05,34.13,141.77Z"/><path class="cls-25" d="M34.37,140.64c-.56.74-.83.25-.83.25S33.5,140.32,34.37,140.64Z"/></g></g></g></svg>