<svg width="270" height="168" viewBox="0 0 270 168" fill="none" xmlns="http://www.w3.org/2000/svg">
<path d="M223.184 131.796C218.531 131.796 214.746 135.582 214.746 140.235C214.746 144.887 218.531 148.673 223.184 148.673C227.837 148.673 231.623 144.887 231.623 140.235C231.623 135.582 227.837 131.796 223.184 131.796Z" fill="white"/>
<path d="M55.5777 131.796C50.9249 131.796 47.1392 135.582 47.1392 140.235C47.1392 144.887 50.9249 148.673 55.5777 148.673C60.2305 148.673 64.0162 144.887 64.0162 140.235C64.0162 135.582 60.2305 131.796 55.5777 131.796Z" fill="white"/>
<path d="M258.564 76.6909L226.458 62.4216L202.957 11.503C199.972 5.03332 193.438 0.853638 186.313 0.853638H13.6762C6.13509 0.853638 0 6.98873 0 14.5299V130.923C0 138.464 6.13509 144.599 13.6762 144.599H28.2824C30.3816 157.775 41.8207 167.878 55.5778 167.878C69.3349 167.878 80.774 157.775 82.8732 144.599H195.888C197.987 157.775 209.426 167.878 223.184 167.878C236.941 167.878 248.38 157.775 250.479 144.599H255.774C263.315 144.599 269.45 138.464 269.45 130.923V93.4428C269.451 86.2054 265.177 79.6298 258.564 76.6909ZM203.201 32.8618L216.362 61.3782H176.336V32.8618H203.201ZM55.5778 159.149C45.149 159.149 36.6639 150.663 36.6639 140.235C36.6639 129.805 45.149 121.321 55.5778 121.321C66.0066 121.321 74.4917 129.805 74.4917 140.235C74.4917 150.663 66.0066 159.149 55.5778 159.149ZM223.184 159.149C212.755 159.149 204.27 150.664 204.27 140.235C204.27 129.805 212.755 121.321 223.184 121.321C233.613 121.321 242.098 129.805 242.098 140.235C242.098 150.663 233.613 159.149 223.184 159.149ZM260.721 117.247H255.774C253.364 117.247 251.41 119.201 251.41 121.612C251.41 124.023 253.364 125.976 255.774 125.976H260.721V130.923C260.721 133.651 258.502 135.87 255.774 135.87H250.48C248.38 122.694 236.941 112.591 223.184 112.591C209.427 112.591 197.988 122.694 195.889 135.87H82.8732C80.774 122.694 69.3349 112.591 55.5778 112.591C41.8207 112.591 30.3816 122.694 28.2824 135.87H13.6762C10.9485 135.87 8.7295 133.651 8.7295 130.923V125.976H22.9877C25.3982 125.976 27.3524 124.023 27.3524 121.612C27.3524 119.201 25.3982 117.247 22.9877 117.247H8.7295V14.5299C8.7295 11.8022 10.9485 9.58314 13.6762 9.58314H186.313C190.045 9.58314 193.468 11.7731 195.032 15.1613L199.172 24.1323H158.004C153.03 24.1323 148.983 28.1787 148.983 33.1528V51.7757C148.983 61.8839 157.207 70.1077 167.315 70.1077H222.258L249.363 82.1544L248.677 82.571C244.619 85.0345 242.098 89.5139 242.098 94.261V102.989C242.098 105.4 244.052 107.354 246.463 107.354H260.721V117.247ZM167.606 32.8618V61.3782H167.315C162.021 61.3782 157.713 57.0704 157.713 51.7757V33.1528C157.713 32.9927 157.843 32.8618 158.004 32.8618H167.606ZM260.721 98.624H250.828V94.2616C250.828 92.5448 251.74 90.9246 253.207 90.033L258.221 86.9888C259.796 88.7242 260.721 91.0107 260.721 93.4422V98.624Z" fill="white"/>
<path d="M190.594 117.247H88.1678C85.7573 117.247 83.8031 119.2 83.8031 121.612C83.8031 124.023 85.7573 125.976 88.1678 125.976H190.594C193.004 125.976 194.959 124.023 194.959 121.612C194.959 119.2 193.004 117.247 190.594 117.247Z" fill="white"/>
<path d="M69.5448 19.4764C67.1343 19.4764 65.1801 21.4301 65.1801 23.8412V42.7551H59.9424V23.8412C59.9424 21.4301 57.9881 19.4764 55.5776 19.4764C53.1671 19.4764 51.2129 21.4301 51.2129 23.8412V42.7551H45.9752V23.8412C45.9752 21.4301 44.021 19.4764 41.6104 19.4764C39.1999 19.4764 37.2457 21.4301 37.2457 23.8412V51.7756C37.2457 59.3167 43.3808 65.4518 50.9219 65.4518H51.2129V102.989C51.2129 105.4 53.1671 107.353 55.5776 107.353C57.9881 107.353 59.9424 105.4 59.9424 102.989V65.4518H60.2334C67.7745 65.4518 73.9096 59.3167 73.9096 51.7756V23.8412C73.9096 21.4301 71.9553 19.4764 69.5448 19.4764ZM65.1801 51.7756C65.1801 54.5033 62.9611 56.7223 60.2334 56.7223H50.9219C48.1942 56.7223 45.9752 54.5033 45.9752 51.7756V51.4846H65.1801V51.7756Z" fill="white"/>
<path d="M88.1678 107.353C90.5783 107.353 92.5326 105.4 92.5326 102.989V84.0747H101.295C103.951 84.0747 106.46 82.912 108.178 80.885C109.895 78.858 110.629 76.1926 110.192 73.5714L102.485 27.3254C101.727 22.7774 97.8302 19.4764 93.196 19.4764C88.0165 19.4764 83.8031 23.6899 83.8031 28.8694V102.989C83.8031 105.4 85.7573 107.353 88.1678 107.353ZM92.5326 28.8694C92.5326 28.5039 92.83 28.2059 93.2199 28.2059C93.5458 28.2059 93.821 28.4387 93.8746 28.7606L101.582 75.0065C101.588 75.0432 101.604 75.1398 101.518 75.2422C101.43 75.3452 101.332 75.3452 101.295 75.3452H92.5326V28.8694Z" fill="white"/>
</svg>
