<svg width="192" height="192" viewBox="0 0 192 192" fill="none" xmlns="http://www.w3.org/2000/svg">
<path d="M189.703 117.526C183.954 109.862 178.205 109.862 164.153 117.207L136.688 134.133C132.855 136.369 124.233 137.007 116.249 137.007C117.846 134.133 117.207 130.62 114.332 126.468C109.223 119.123 100.6 114.652 91.3382 114.652H78.883C72.1763 114.652 65.7889 112.736 60.6792 108.904C49.1555 100.261 31.1354 109.665 22.3554 115.274V108.584H7.62939e-06V191.619H22.3554V182.038H63.8727C70.2601 182.038 76.9668 181.399 83.3538 181.08L124.871 174.692C126.468 174.692 128.065 174.373 129.342 174.054C133.175 173.415 136.688 171.498 139.881 168.624L188.105 130.3C191.938 127.107 192.577 121.359 189.703 117.526ZM15.968 185.231H6.38705V114.971H15.968V119.762V182.038V185.231ZM184.273 126.149L135.73 163.834L135.41 164.153C133.175 166.07 130.939 167.347 128.385 167.666H128.065C126.788 167.986 125.83 167.986 124.552 167.986L82.3961 174.373C76.3283 175.331 69.9409 175.65 63.8731 175.65H22.3554V122.955C30.0202 117.526 47.9047 107.307 56.8468 114.332C62.9146 118.804 70.899 121.358 78.883 121.358H91.3382C98.6837 121.358 105.39 124.552 109.542 130.939C110.819 132.855 111.139 134.772 110.819 135.411C109.861 137.007 106.029 137.646 101.877 137.966C101.447 137.966 101.018 137.966 100.6 137.966C99.7765 137.966 98.9999 137.966 98.3644 137.966H69.6216C59.7215 137.966 53.6533 142.756 53.6533 150.74C53.6533 152.656 54.9306 153.934 56.8468 153.934C58.763 153.934 60.0403 152.656 60.0403 150.74C60.0403 149.143 60.0403 144.353 69.6213 144.353H98.0448C98.7069 144.353 99.5276 144.353 100.6 144.353C101.08 144.353 101.604 144.353 102.197 144.353C102.516 144.353 103.155 144.353 103.794 144.353C118.804 144.672 132.856 144.353 140.201 140.52L167.667 123.594C181.08 116.887 182.357 118.484 184.913 122.316C185.551 123.275 185.551 125.191 184.273 126.149Z" fill="white"/>
<path d="M24.9106 100.919C25.5494 101.558 26.5075 102.196 27.4656 102.196H164.154C165.431 102.196 166.389 101.558 166.709 100.599L178.206 84.6311C178.845 83.673 179.164 82.3957 178.525 81.4376C177.886 80.4795 176.928 79.8407 175.651 79.8407H169.19C167.562 41.8223 137.022 11.2819 99.0034 9.65392V6.38704H105.391C107.307 6.38704 108.584 5.10971 108.584 3.19352C108.584 1.27733 107.307 0 105.39 0H86.2286C84.3124 0 83.0351 1.27733 83.0351 3.19352C83.0351 5.10971 84.3124 6.38704 86.2286 6.38704H92.616V9.65392C54.5977 11.2819 24.0573 41.8223 22.4293 79.8407H15.9681C14.6908 79.8407 13.4131 80.7988 13.0938 81.7569C12.7746 82.7149 12.7746 83.9923 13.4131 84.9504L24.9106 100.919ZM95.8095 15.9684C131.898 15.9684 161.279 44.3919 162.876 79.8414H28.743C30.6591 44.3916 60.0404 15.9684 95.8095 15.9684ZM25.5491 86.2285H166.07H169.263L162.556 95.8094H29.0622L22.3555 86.2285H25.5491Z" fill="white"/>
<path d="M95.8097 22.3555C74.4123 22.3555 54.2924 33.8526 43.1145 52.6952C42.4756 54.2922 42.7952 56.2084 44.3918 57.1665C45.0307 57.4857 45.3499 57.4857 45.9888 57.4857C47.2661 57.4857 48.2242 56.8469 48.863 55.8888C58.444 39.2819 76.6478 28.7429 95.8097 28.7429C97.7258 28.7429 99.0032 27.4656 99.0032 25.5494C99.0032 23.6332 97.7258 22.3555 95.8097 22.3555Z" fill="white"/>
</svg>
