<svg width="372" height="372" viewBox="0 0 372 372" fill="none" xmlns="http://www.w3.org/2000/svg">
<path d="M141 277.5H231M141 254.025C133.395 252.392 126.721 247.869 122.387 241.409C118.053 234.95 116.397 227.06 117.769 219.403C119.14 211.746 123.433 204.922 129.74 200.369C136.047 195.816 143.876 193.891 151.575 195C153.47 190.7 156.139 186.785 159.45 183.45C162.933 179.958 167.072 177.187 171.627 175.296C176.183 173.406 181.067 172.433 186 172.433C190.933 172.433 195.817 173.406 200.373 175.296C204.928 177.187 209.067 179.958 212.55 183.45C215.861 186.785 218.53 190.7 220.425 195C228.124 193.891 235.953 195.816 242.26 200.369C248.567 204.922 252.86 211.746 254.231 219.403C255.603 227.06 253.947 234.95 249.613 241.409C245.279 247.869 238.605 252.392 231 254.025V307.5H141V254.025Z" stroke="#00C036" stroke-width="12" stroke-linecap="round" stroke-linejoin="round"/>
<g clip-path="url(#clip0_2331_1236)">
<path d="M107.98 16.4248C104.44 16.832 103.104 17.2664 102.035 18.3524C100.332 20.117 100.733 22.0717 103.304 24.2979C110.953 30.8678 114.292 35.9717 120.204 49.9531C124.145 59.2922 126.683 64.0432 130.09 68.6041C135.233 75.4455 143.483 81.4453 153.369 85.4904C159.915 88.1781 171.203 91.2188 179.586 92.5762L181.49 92.8748V106.313C181.49 120.811 181.49 120.811 183.294 122.141C184.596 123.145 187.569 123.254 189.172 122.385C191.443 121.136 191.51 120.838 191.51 111.662V103.463L192.612 103.327C193.18 103.273 196.152 102.947 199.158 102.621C214.989 100.938 226.678 96.9199 235.262 90.2143C241.206 85.599 243.812 82.3684 251.092 70.6131C258.273 59.075 261.847 54.867 267.992 50.7133C269.562 49.6545 271.098 48.4057 271.399 47.9441C272.501 46.2881 271.866 43.9805 269.996 42.8945C269.495 42.5959 267.591 42.0529 265.754 41.6729C244.847 37.3834 222.67 41.3199 205.971 52.2879C201.195 55.4371 196.219 59.8623 193.013 63.8531C192.278 64.7219 191.81 65.102 191.71 64.8576C191.643 64.6404 191.242 63.3102 190.808 61.8984C188.337 53.2924 182.726 44.5777 174.977 37.2477C163.121 26.0625 145.52 18.3524 127.451 16.452C122.442 15.9361 112.589 15.909 107.98 16.4248ZM126.717 24.5422C133.964 25.3295 140.043 26.877 146.99 29.7275C157.343 33.9899 165.626 39.9625 172.172 47.8899C179.052 56.1973 182.559 64.8033 183.06 74.5225C183.227 78.1604 182.726 84.0516 182.225 84.4859C181.824 84.8117 174.643 83.4 168.865 81.8254C152.166 77.3188 141.679 70.2602 135.166 59.1836C133.43 56.1973 131.593 52.3693 129.222 46.6953C124.713 35.9174 122.408 31.465 118.768 26.7955L116.731 24.1621H119.97C121.74 24.1621 124.78 24.3522 126.717 24.5422ZM255.568 48.4328C255.668 48.5414 255.635 48.7858 255.468 48.9758C255.267 49.1658 254.132 50.3875 252.929 51.6906C249.823 55.0299 248.387 57.0932 242.676 66.3779C239.904 70.8574 236.598 75.8256 235.295 77.4273C228.181 86.1691 218.295 91.3273 204.001 93.7436C201.83 94.1236 198.523 94.558 196.686 94.7481C194.849 94.9109 192.912 95.101 192.378 95.1553L191.409 95.291L191.61 91.8432C191.944 85.4361 193.714 80.0065 197.388 73.9795C205.938 59.9438 222.771 50.3061 242.175 48.3242C244.647 48.0527 255.2 48.1613 255.568 48.4328Z" fill="#00C036"/>
</g>
<rect x="6" y="115" width="360" height="251" rx="22" stroke="#009229" stroke-width="12"/>
<rect x="148" y="113" width="77" height="33" rx="6" stroke="#009229" stroke-width="8"/>
<rect x="148" y="335" width="77" height="33" rx="6" stroke="#009229" stroke-width="8"/>
<defs>
<clipPath id="clip0_2331_1236">
<rect width="171" height="120" fill="white" transform="translate(101)"/>
</clipPath>
</defs>
</svg>
