<svg width="1064" height="372" viewBox="0 0 1064 372" fill="none" xmlns="http://www.w3.org/2000/svg">
<path d="M465 308C461.533 308 458.667 306.867 456.4 304.6C454.133 302.2 453 299.267 453 295.8V172.2C453 168.733 454.133 165.867 456.4 163.6C458.667 161.2 461.533 160 465 160C468.467 160 471.333 161.2 473.6 163.6C475.867 165.867 477 168.733 477 172.2V295.8C477 299.267 475.867 302.2 473.6 304.6C471.333 306.867 468.467 308 465 308ZM528.6 201C531.667 201 534.333 202.267 536.6 204.8C538.867 207.333 540 209.8 540 212.2C540 215.4 538.4 218.4 535.2 221.2L475 276.6L474 249L519.8 204.8C522.333 202.267 525.267 201 528.6 201ZM531.6 307.8C528.133 307.8 525.2 306.467 522.8 303.8L485.8 264.6L504 247.8L540 287C542.533 289.667 543.8 292.667 543.8 296C543.8 299.467 542.4 302.333 539.6 304.6C536.933 306.733 534.267 307.8 531.6 307.8ZM643.291 201C646.757 201 649.624 202.2 651.891 204.6C654.157 206.867 655.291 209.733 655.291 213.2V264C655.291 278.133 651.357 289.333 643.491 297.6C635.624 305.867 624.291 310 609.491 310C594.691 310 583.357 305.867 575.491 297.6C567.757 289.333 563.891 278.133 563.891 264V213.2C563.891 209.733 565.024 206.867 567.291 204.6C569.557 202.2 572.424 201 575.891 201C579.357 201 582.224 202.2 584.491 204.6C586.757 206.867 587.891 209.733 587.891 213.2V264C587.891 272.133 589.691 278.2 593.291 282.2C596.891 286.067 602.291 288 609.491 288C616.824 288 622.291 286.067 625.891 282.2C629.491 278.2 631.291 272.133 631.291 264V213.2C631.291 209.733 632.424 206.867 634.691 204.6C636.957 202.2 639.824 201 643.291 201ZM695.273 308C691.807 308 688.94 306.867 686.673 304.6C684.407 302.2 683.273 299.267 683.273 295.8V172.2C683.273 168.733 684.407 165.867 686.673 163.6C688.94 161.2 691.807 160 695.273 160C698.74 160 701.607 161.2 703.873 163.6C706.14 165.867 707.273 168.733 707.273 172.2V295.8C707.273 299.267 706.14 302.2 703.873 304.6C701.607 306.867 698.74 308 695.273 308ZM758.873 201C761.94 201 764.607 202.267 766.873 204.8C769.14 207.333 770.273 209.8 770.273 212.2C770.273 215.4 768.673 218.4 765.473 221.2L705.273 276.6L704.273 249L750.073 204.8C752.607 202.267 755.54 201 758.873 201ZM761.873 307.8C758.407 307.8 755.473 306.467 753.073 303.8L716.073 264.6L734.273 247.8L770.273 287C772.807 289.667 774.073 292.667 774.073 296C774.073 299.467 772.673 302.333 769.873 304.6C767.207 306.733 764.54 307.8 761.873 307.8ZM894.448 254.6C894.448 265.533 891.982 275.2 887.048 283.6C882.248 291.867 875.715 298.333 867.448 303C859.315 307.667 850.182 310 840.048 310C829.915 310 820.715 307.667 812.448 303C804.315 298.333 797.782 291.867 792.848 283.6C788.048 275.2 785.648 265.533 785.648 254.6C785.648 243.667 788.048 234.067 792.848 225.8C797.782 217.4 804.315 210.867 812.448 206.2C820.715 201.4 829.915 199 840.048 199C850.182 199 859.315 201.4 867.448 206.2C875.715 210.867 882.248 217.4 887.048 225.8C891.982 234.067 894.448 243.667 894.448 254.6ZM870.448 254.6C870.448 247.8 869.048 241.933 866.248 237C863.582 231.933 859.915 228 855.248 225.2C850.715 222.4 845.648 221 840.048 221C834.448 221 829.315 222.4 824.648 225.2C820.115 228 816.448 231.933 813.648 237C810.982 241.933 809.648 247.8 809.648 254.6C809.648 261.267 810.982 267.133 813.648 272.2C816.448 277.133 820.115 281 824.648 283.8C829.315 286.6 834.448 288 840.048 288C845.648 288 850.715 286.6 855.248 283.8C859.915 281 863.582 277.133 866.248 272.2C869.048 267.133 870.448 261.267 870.448 254.6ZM929.453 308C925.986 308 923.12 306.867 920.853 304.6C918.586 302.2 917.453 299.267 917.453 295.8V172.2C917.453 168.733 918.586 165.867 920.853 163.6C923.12 161.2 925.986 160 929.453 160C932.92 160 935.786 161.2 938.053 163.6C940.32 165.867 941.453 168.733 941.453 172.2V295.8C941.453 299.267 940.32 302.2 938.053 304.6C935.786 306.867 932.92 308 929.453 308ZM993.053 201C996.12 201 998.786 202.267 1001.05 204.8C1003.32 207.333 1004.45 209.8 1004.45 212.2C1004.45 215.4 1002.85 218.4 999.653 221.2L939.453 276.6L938.453 249L984.253 204.8C986.786 202.267 989.72 201 993.053 201ZM996.053 307.8C992.586 307.8 989.653 306.467 987.253 303.8L950.253 264.6L968.453 247.8L1004.45 287C1006.99 289.667 1008.25 292.667 1008.25 296C1008.25 299.467 1006.85 302.333 1004.05 304.6C1001.39 306.733 998.72 307.8 996.053 307.8ZM1051.92 295.8C1051.92 299.267 1050.79 302.2 1048.52 304.6C1046.25 306.867 1043.39 308 1039.92 308C1036.45 308 1033.59 306.867 1031.32 304.6C1029.05 302.2 1027.92 299.267 1027.92 295.8V213.2C1027.92 209.733 1029.05 206.867 1031.32 204.6C1033.59 202.2 1036.45 201 1039.92 201C1043.39 201 1046.25 202.2 1048.52 204.6C1050.79 206.867 1051.92 209.733 1051.92 213.2V295.8ZM1039.72 188C1035.19 188 1031.99 187.267 1030.12 185.8C1028.25 184.333 1027.32 181.733 1027.32 178V174.2C1027.32 170.333 1028.32 167.733 1030.32 166.4C1032.45 164.933 1035.65 164.2 1039.92 164.2C1044.59 164.2 1047.85 164.933 1049.72 166.4C1051.59 167.867 1052.52 170.467 1052.52 174.2V178C1052.52 181.867 1051.52 184.533 1049.52 186C1047.52 187.333 1044.25 188 1039.72 188Z" fill="white"/>
<path d="M141 277.5H231M141 254.025C133.395 252.392 126.721 247.869 122.387 241.409C118.053 234.95 116.397 227.06 117.769 219.403C119.14 211.746 123.432 204.922 129.74 200.369C136.047 195.816 143.876 193.891 151.575 195C153.47 190.7 156.139 186.785 159.45 183.45C162.933 179.958 167.072 177.187 171.627 175.297C176.183 173.406 181.067 172.433 186 172.433C190.932 172.433 195.817 173.406 200.372 175.297C204.928 177.187 209.067 179.958 212.55 183.45C215.861 186.785 218.53 190.7 220.425 195C228.124 193.891 235.953 195.816 242.26 200.369C248.567 204.922 252.86 211.746 254.231 219.403C255.603 227.06 253.947 234.95 249.613 241.409C245.279 247.869 238.605 252.392 231 254.025V307.5H141V254.025Z" stroke="white" stroke-width="12" stroke-linecap="round" stroke-linejoin="round"/>
<g clip-path="url(#clip0_2328_1227)">
<path d="M107.98 16.4248C104.44 16.832 103.104 17.2664 102.035 18.3524C100.332 20.117 100.733 22.0717 103.304 24.2979C110.953 30.8678 114.292 35.9717 120.204 49.9531C124.145 59.2922 126.683 64.0432 130.09 68.6041C135.233 75.4455 143.483 81.4453 153.369 85.4904C159.915 88.1781 171.203 91.2188 179.586 92.5762L181.49 92.8748V106.313C181.49 120.811 181.49 120.811 183.294 122.141C184.596 123.145 187.569 123.254 189.172 122.385C191.443 121.136 191.51 120.838 191.51 111.662V103.463L192.612 103.327C193.179 103.273 196.152 102.947 199.158 102.621C214.989 100.938 226.678 96.9199 235.262 90.2143C241.206 85.599 243.812 82.3684 251.092 70.6131C258.273 59.075 261.847 54.867 267.992 50.7133C269.562 49.6545 271.098 48.4057 271.399 47.9441C272.501 46.2881 271.866 43.9805 269.996 42.8945C269.495 42.5959 267.591 42.0529 265.754 41.6729C244.847 37.3834 222.67 41.3199 205.971 52.2879C201.195 55.4371 196.219 59.8623 193.012 63.8531C192.278 64.7219 191.81 65.102 191.71 64.8576C191.643 64.6404 191.242 63.3102 190.808 61.8984C188.337 53.2924 182.726 44.5777 174.977 37.2477C163.121 26.0625 145.52 18.3524 127.451 16.452C122.442 15.9361 112.589 15.909 107.98 16.4248ZM126.717 24.5422C133.964 25.3295 140.043 26.877 146.989 29.7275C157.343 33.9899 165.626 39.9625 172.172 47.8899C179.052 56.1973 182.559 64.8033 183.06 74.5225C183.227 78.1604 182.726 84.0516 182.225 84.4859C181.824 84.8117 174.643 83.4 168.865 81.8254C152.166 77.3188 141.679 70.2602 135.166 59.1836C133.43 56.1973 131.593 52.3693 129.221 46.6953C124.713 35.9174 122.408 31.465 118.768 26.7955L116.73 24.1621H119.97C121.74 24.1621 124.779 24.3522 126.717 24.5422ZM255.568 48.4328C255.668 48.5414 255.635 48.7858 255.468 48.9758C255.267 49.1658 254.132 50.3875 252.929 51.6906C249.823 55.0299 248.387 57.0932 242.676 66.3779C239.904 70.8574 236.597 75.8256 235.295 77.4273C228.181 86.1691 218.295 91.3273 204.001 93.7436C201.83 94.1236 198.523 94.558 196.686 94.7481C194.849 94.9109 192.912 95.101 192.378 95.1553L191.409 95.291L191.61 91.8432C191.944 85.4361 193.714 80.0065 197.388 73.9795C205.938 59.9438 222.77 50.3061 242.175 48.3242C244.646 48.0527 255.2 48.1613 255.568 48.4328Z" fill="white"/>
</g>
<rect x="6" y="115" width="360" height="251" rx="22" stroke="white" stroke-width="12"/>
<rect x="148" y="113" width="77" height="33" rx="6" stroke="white" stroke-width="8"/>
<rect x="148" y="335" width="77" height="33" rx="6" stroke="white" stroke-width="8"/>
<defs>
<clipPath id="clip0_2328_1227">
<rect width="171" height="120" fill="white" transform="translate(101)"/>
</clipPath>
</defs>
</svg>
